<?xml version="1.0" encoding="UTF-8"?>
<svg id="Capa_1" data-name="Capa 1" xmlns="http://www.w3.org/2000/svg" viewBox="0 0 500 500">
  <defs>
    <style>
      .cls-1 {
        fill: #fff;
      }
    </style>
  </defs>
  <g>
    <path class="cls-1" d="M167.971,254.946c.565.102,1.837-.036,1.558-.324l-2.171-.079.613.403Z"/>
    <path class="cls-1" d="M171.751,252.507c-1.102-.269-2.978-.364-4.899.168,2.102.014,1.258.209,3.769.287.278.298-.643.632-1.437.655.56.059-.435.503.93.568,1.619-.523,1.674-1.151.21-1.51.45-.182,1.027-.145,1.426-.168Z"/>
    <path class="cls-1" d="M153.293,224.548l.098.327c.005-.155-.033-.257-.098-.327Z"/>
    <path class="cls-1" d="M132.368,217.93c.17-.036.261-.241.289-.435-.168.125-.307.245-.289.435Z"/>
    <path class="cls-1" d="M128.798,215.273c.077.073.144.107.215.158-.073-.203-.153-.318-.215-.158Z"/>
    <path class="cls-1" d="M153.293,224.548l-.255-.861c-.332.621.059.6.255.861Z"/>
    <path class="cls-1" d="M165.782,249.629c.129.057.343.072.616.065-.113-.047-.211-.096-.289-.153-.11.03-.205.055-.328.088Z"/>
    <path class="cls-1" d="M162.74,228.358l.151.116c.197-.156.425-.355.675-.583l-.826.467Z"/>
    <path class="cls-1" d="M168.712,233.633c-.058-.193-1.487.963-2.133,1.44.633-.423.995-.565,1.198-.535.267-.224.569-.512.934-.905Z"/>
    <path class="cls-1" d="M172.309,245.8l.314.108c-.095-.024-.197-.085-.314-.108Z"/>
    <path class="cls-1" d="M158.288,224.782c.128-.24.226-.461.273-.599-.118.198-.205.4-.273.599Z"/>
    <path class="cls-1" d="M80.568,313.678c-.006.135-.009.212-.014.326.037-.182.05-.313.014-.326Z"/>
    <path class="cls-1" d="M88.39,321.921l-.09.119c.072.344.142.676.211,1.004l-.122-1.123Z"/>
    <path class="cls-1" d="M121.884,212.754c.014.021.019.021.031.035.184-.211.08-.173-.031-.035Z"/>
    <path class="cls-1" d="M61.957,235.985c1.659.679.589,2.347,2.637,2.899-.578-.44-1.22-2.756-2.637-2.899Z"/>
    <path class="cls-1" d="M165.967,249.416c-.043-.067-.081-.136-.086-.217-.026.121.003.186.086.217Z"/>
    <path class="cls-1" d="M64.595,238.884l.011.012.2.05c-.087-.025-.137-.04-.212-.061Z"/>
    <path class="cls-1" d="M105.818,215.114c.082.314.184.546.285.767-.034-.185-.105-.406-.285-.767Z"/>
    <path class="cls-1" d="M117.899,216.557l-.3-.233c.122.162.218.216.3.233Z"/>
    <path class="cls-1" d="M100.195,218.8c-.186-.103-.295-.339-.453-.054.041.087.074.147.114.205.021-.262.099-.397.339-.151Z"/>
    <path class="cls-1" d="M94.002,220.412c.073.125.146.213.219.321.052-.047.113-.101.167-.149l-.386-.172Z"/>
    <path class="cls-1" d="M68.073,309.713c-.234.473-.526.967-.825,1.448.733-1.078,1.563-1.032.825-1.448Z"/>
    <path class="cls-1" d="M166.763,249.316c-.449.111-.68.141-.796.1.037.047.087.087.142.125.264-.069.511-.142.653-.225Z"/>
    <path class="cls-1" d="M103.114,232.953c-.3-.032-.598-.053-.896-.07.273.112.595.13.896.07Z"/>
    <path class="cls-1" d="M57.269,277.877l.199.218c.049-.072.003-.147-.199-.218Z"/>
    <path class="cls-1" d="M99.827,233.771c-.316-.582-.573-.899-.802-1.089.004.147-.004.272.031.482l.771.607Z"/>
    <path class="cls-1" d="M67.238,311.178l.01-.017-.01.017Z"/>
    <path class="cls-1" d="M73.536,309.987c-.518-.316-1.334,1.969-2.093,3.135-1.085.207.492-1.749.851-2.954-.706.321-2.2,2.042-2.494,1.724.185-.352.199-.516.537-.888-.738.657-1.119.455-1.526.277-.406-.19-.85-.328-1.861.428.086-.201.188-.38.287-.532-.64,1.031-1.356,2.02-1.903,2.702-.316-.194-1.492.758-.629-.565.153.18.56-.307.943-.629l-.726.297c1.142-1.983.896-.289,1.916-1.615-.99.164-2.883,1.036-2.899.154,1.38-1.734,1.468.294,2.196-1.684.02.401.057.788.1,1.18,1.716-3.094.222.486,2.137-2.762-.334-1.11-1.593.147-1.908-1.028-1.013.732-1.187,1.381-2.211,2.106-1.352.249-.601-.987.165-2.066.758-1.092,1.513-2.026.069-1.426-1.268.79-3.458,2.546-2.901.937l2.082-1.42c-.46-.928-3.154,1.841-2.559-.099.893-.442,1.176.131,1.305-.177,1.096-1.775-1.426.498-1.777.038l1.696-1.432c-.933-.635-2.946-.759-3.964-1.659.602-.276,1.298-.46,1.736-1.052-1.747-.739-1.333-3.027-.506-4.579-.651.085-1.314.153-1.96.216-.016-.115.755-.469,1.141-.482.546-.656-1.157.366-1.944.382-.222-.24.93-.674,1.533-.687-.885-.118-1.883-.457-2.372-.877-.116-.095-.207-.199-.264-.309-.057-.142-.076-.39-.05-.578.052-.402.285-.792.768-1.139l.588.19c.686-.994-3.989-.779-2.277-1.806l.35.15c.693-2.111-1.139-4.412,1.766-5.995-2.769-.321,1.252-1.995-2.586-2.213,1.928-1.132,2.621-.77,3.965-2.313.203-.411-2.35-.783-2.711-1.362l2.003.134-2.048-.895,2.428-.179-.464-.54c-.138.184-.94.337-1.514.255-.825-.887,1.582-1.775,2.615-1.653-.482-.659-.977-1.34-1.445-2.027.79.158,1.019.498,1.503.806-1.899-1.247,2.115.135.39-.999-.47.045-1.172-.247-1.57-.331,1.265-.254,1.434-1.21,1.082-2.023l1.332.402c.576-1.193-.078-2.783.33-4.16-.754.316-3.041-.421-3.143-.924l2.083.418c-1.184-.64-.889.224-2.277-.792.406-.477,2.423.343,2.994.822l-.508-.832c.617.153.891.397,1.652.67-1.168-.654,2.334-.368.297-1.429l.608.176c.451-1.238.043-2.092.39-3.195-1.666-.76-1.129-1.02-2.304-1.965.942-.57,2.604-.806,2.994-1.774-.441-1.088-1.255-.937-2.042-1.767,1.488.759,1.859-.244,2.633.835.419-1.223.517-1.538.292-3.656-.671-.233-1.036-.224-1.45-.627-.051-.41.98-.189,1.617.301l.097.161c-.255-.733.029-1.162.55-1.42.537-.249,1.325-.318,2.061-.385,1.462-.153,2.813-.196,1.943-1.882l.079.174c-.148-.78-.266-1.559-.359-2.341.692-.326.647,1.151,1.763,1.462-.481-1.525.027-1.969.625-2.235.592-.283,1.222-.441,1.058-1.591,2.091,1.425,2.672.778,3.169-.099.525-.832.962-1.92,2.481-1.113l-.786-.859c-.421-1.111.759.254,1.126.307-.581-.689-.951-.583-1.161-1.216.784-1.508,2.371-2.126,4.099-2.393,1.736-.273,3.614-.193,5.189-.462,1.113-.237-2.261-5.609.338-3.834l.605,2.103c.451-1.65,1.546-2.199,2.676-2.595,1.119-.437,2.259-.748,2.953-2.203.048.516.276,1.12.065,1.196,1.002,1.265,1.703-.548,1.293-1.761.393.015.468,1.059.893,1.596.749.708.511-2.303,1.26-.899.121.227.028.524-.018.665.066-.815,1.467-.264.633-1.893,1.08.545,1.389-1.26,2.364-.424-.089-2.078,1.7.533,1.13-2.253.68,2.873,2.066,1.929,2.317.456.015.908.681.798.735,2.049.604-.17,1.058-.828.641-2.287.937,1.596,1.36.789,1.781.124.413-.67.809-1.211,1.514.957.796-.942,1.615-1.722,2.435-2.411.827-.661,1.663-1.205,2.505-1.655.256,2.929-1.899.527-1.439,3.579,1.439-1.409,2.169-4.006,3.896-3.452.459.361-.141,1.292-.238,1.807,1.558-1.341,3.184.036,4.596-1.609.006.274-.144.579-.285.809.288-.108.69.402.614-.93l-.273.374c-.552-1.917,1.051-4.102,1.098-5.113-.422,3.835,1.535.942.807,5.79.187-.254.421-.89.366-1.784.293.257.386.778.108,1.799,1.037-.736.662-2.17,1.627-2.126-.007.648-.201.895-.301,1.654.481-1.256.993-2.511,1.804-1.954-.056.389.028.898-.213.885,1.377-.177,2.505-3.302,4.008-1.998-.613,2.782.471.953.396,3.384l.852-.664-.241-1.202c.704.099,1.496-1.632,2.046-.77l-.621.946,1.379-.328-.671-.993c.857-1.175.215-3.072,1.135-2.301-.228.222.747.105.956,1.582,0,0-.002,0-.003.006.45-.725.937-1.489,1.402-.82.033.792-.476,2.649-.456,3.175.626-1.958,1.728-.317,2.523-2.374-.234.475-.448,1.733-.444,1.998l.566-1.576c.243.581.244.841.015,1.834.926.473.231-3.094,1.175-1.574-.118.115-.12.365-.359.577,1.031.901,2.496-.574,3.389.49-.274,2.453-1.059.359-1.181,2.455,1.546-.099,3.845-2.038,5.136-1.006l-.186-.343c.632-1.61.788-1.119.915-.384.128.743.216,1.713.855,1.077-.266.177-.885,1.721-.707,1.376.381.424.926.404,1.617.242.697-.177,1.542-.499,2.482-.657l-.545.729c.223.956,1.228,1.079,1.608,1.735.575-.702.845-.405,1.246-1.648-.305,2.721.787,2.533,1.972,2.379,1.184-.204,2.484-.346,1.942,1.849-.176-.113-.857.345-.726.439.559.046,1.09.149,1.647.237.847-1.251.418-.832.885-1.958.7-.584,1.492-.839,1.81-.586-1.198.322-1.516,1.885-1.839,2.699.258-.385.663-.711.945-1.086-1.14,2.569,2.072-2.21,1.749-.087l-.573.548c.582-.029,1.596-.527,1.769-.027-1.074,1.387-.886.268-1.886,1.294.484.338,3.205-1.473,2.39.16-.544.146-.826-.121-1.355.035-1.012,1.881-.597,1.535-.534,2.086l.005-.063-.016,1.359.244-.557c1.924-1.247,2.388-1.085,2.659-.75.287.336.425.798,1.946.311-2.877.924-1.387.876-2.997,2.023-.264.533-.538,1.201-1.045,1.452,1.544-.579-.598,1.317,1.677.49-.498.376.215.438-1.168,1.237.716.199.853-.721,1.536-1.131,1.149-.212.906.631.737,1.403-.203.806-.31,1.511,1.314,1.423,1.574.49,3.672-.181,5.097.578-.398.377-.971.502-1.439.546-.468.043-.833.002-.833.002-.652.925-.306,1.241.542,1.572-.562.063-.97.331-1.599.708.286.358,2.298-.402,1.584.445-.712.095-1.841.289-2.579.307.72.285,1.978.464,2.661.878-1.046.388-1.71.07-2.448.084.611.418,1.325,1.2,3.056,1.098l.551-.519c.121.217-1.461.396-1.799.303-1.463-.21.422-.845,1.034-1.032l.491.303c1.774-.596,1.52-1.016.84-1.332-.665-.329-1.839-.506-1.844-.922.894-.168,1.793-.324,2.694-.469-.809-.073-1.611-.123-2.405-.15.616-.396,2-1.036,2.519-.738,1.071-1.072-1.094-.213.11-1.253.195-.141.327-.162.449-.145l-.989-.308c.575-.094,1.735-.819,1.522-.29.503-.851-.142-1.136-.724-1.294-.574-.171-1.041-.258-.212-.906l.193.019c-.77-.558-1.226-.357-1.823-.042-.595.322-1.33.738-2.632.802,1.327-.981,2.636-1.998,3.924-3.05l-1.811.837c-.017-.179-.047-.542.669-.891-1.485.155-.69.524-1.978.876,1.114-1.614-1.825-1.324.665-3.243-1.407.635-.522,1.272-1.874,1.195,2.641-2.163-1.031-.441-.194-1.935,1.532-.902,1.213.26,2.02-1.309-2.628,1.465-.416-1.551-1.288-1.722-1.809,1.509-1.664-.384-2.956-.614.614-.488-.455-2.333-.681-3.624l.287-.277c-1.746,1.659-2.179.637-3.078.58.924-1.097,1.382-1.452,2.12-1.684l-.577-.445c-.615.491-1.039.67-1.564.603l1.236-1.302c-.842-.553-2.794.552-3.121-1.125-.95,1.375-1.84,4.334-3.416,4.654.458-.777,1.256-2.099,1.728-2.237-.153.04-.719.431-.685-.003l1.237-1.012c-.092-.848-.926.914-1.201.572.695-1.084.222-.946.814-1.78.162-.045.038.653.45.317-.29-.457-.4-1.432-.08-2.378-.337.65-.89,1.486-1.285,1.454-.854-.377.498-1.497.336-2.35-.639.666-.729-.448-1.655,1.238-.235-.137.139-.949.286-1.461-.836.527-2.161-.823-2.561,1.267l.049.176c-.038.026-.062.015-.105.041l.003.002-.003-.002c-1.111.538-1.693-.03-2.263-.724-.572-.665-1.118-1.501-1.985-1.37l.227-.601c-1.115.372-2.078-.284-3.113.853-.247-.081-.247-1.313.086-2.01-.816.243-1.079.936-1.764-.361.983-.891.029-1.024.923-.596-.73-.772-.692-1.858-2.088-.385.738-1.517-.184-2.181-.734-1.808l.36,1.302c-.535.121-.916-.134-1.314-.358l.708-2.066c-.667-1.483-1.784-.59-2.733.159-.962.746-1.77,1.273-2.146-1.006-.727,1.424.849,1.208.121,2.892-.778-.413-1.231-3.628-1.516-3.676-1.054-1.343-1.514,3-2.629,2.042.076.783-.021,2.848-.97,3.487-.782-.365-.718-3.33-.119-3.895.211-.045.286.21.251.469.302-.254.702-.546.447-1.414l-.19.758c-.345-.827-1.546-.862-1.156-2.099-.721.688-.385,1.24.059,1.685-1.011-1.204-1.719-.177-2.804-.993.156.435.264,1.351.087,1.333-1.597-1.045-.807,1.423-1.919,1.707-.577-1.199.342-2.805-.817-1.855-.66-.821-.082-2.056.222-2.676-1.088,1.447-1.924-1.032-2.533-1.312l.567-.617c-.34.367-.612.352-.889.344l.297,1.551c-.319-.274-.593-.284-.582-.926-.338,1.009.228,2.576-.427,3.953-.42-.798-1.271.844-1.431-1.205,1.339.681-.163-2.064.983-2.402-.222.24-.492.239-.819-.03-.05-.229.043-.425.132-.545-1.329-1.817-.582,2.329-1.908,2.299.146-1.158-.361-2.19-.577-1.938.547.016.303,1.918-.159,2.824-.878-.867-.898.705-1.341.618l.519.403c-.127,1.163-.548,1.028-1.11,1.415-.093-.898.499-.641.273-1.028-.54,2.048-1.577-2.031-2.414-.601-.476-.755-.186-2.166-.601-2.671-.926,1.561-1.258-1.502-2.26-.163.459,1.518.468,1.136-.148,2.716l1.68-1.251-.944,2.354c.526-.028,1.034-1.08,1.374-.831-.44,1.3-.409.911-.061,2.181-.908-2.271-1.291,1.481-2.251-.014l-.355-3.834c-1.479-1.594-2.054,2.222-3.807,1.458l.618.595c-.016,1.535-.978.352-1.417,1.046-.139-1.281-.54-1.693-.892-2.449.176.94-1.235.095-.956,2.66l-1.015-1.538c-1.463-.429-.836,3.855-2.136,3.694.093-1.45-.664-2.221-.012-3.382-.427.078-.858-.071-.683.803-.42-.733-.799,1.944-1.445.833-.052.591.19,1.909-.292,1.92-.11-.241-.144-.62-.144-.62.141.621-.518,1.02.211,2.306-1.085-1.796-1.97-1.515-2.787-1.146-.821.38-1.581.818-2.624-.678-.776.682-1.714,1.428-2.487,1.769-.071-.382-.201-.609-.006-.531-1.502-.763.519,3.727-1.137,2.895-1.337-1.731.276-1.293-.383-1.894-1.614-3.915-1.317,1.068-3.025-.892l.115-.314c-1.184-1.066-1.001,2.099-2.131,2.276,0,0-.097-.366-.246-.59.14,2.304-.867,3.5-1.542,4.518-.422-1.636.057-1.002-.851-2.432-.329.425,1.284,2.381.651,3.213-.669-.683-1.637-1.093-2.537-2.652l.783-.49c-1.461-1.874-1.045.591-1.648.467l-.413-.93c-1.12.984.08,3.212-1.298,3.791l.513.589c.579,2.603-1.302-.887-1.04,1.147l-1.536-2.081c-.171.8-.306,3.121-.823,4.03-.6-1.877-.17-3.337-.14-4.675-.486.262-1.483,1.174-1.025,2.384.046-.326-.062-1.006.335-.79.533,2.078.363,3.323-.501,3.9-1.339-2.107-2.093-1.96-2.875-1.622-.791.325-1.545.896-3.053-.398-.226,1.325-1.094,1.766-2.12,2.134-1.037.344-2.235.614-2.988,1.523,3.221,2.309-.423.536,2.396,3.357-.203.531-.39.614-.602.459-.918-.213-1.843-.405-2.785-.588-1.093-.548-.26-.982-.922-1.584-1.063.629-1.548-.843-2.878-1.008,1.139.887,1.153,1.71.295,1.848.662.178,1.33.374,1.994.579.4,2.633-3.427-1.234-3.043,1.444l-.568-1.237c-.064,1.111-2.179,2.504-.223,5.144-.453-.172-1.433-.686-1.419-1.168-.832.681-.868,2.136-.976,3.392-.082,1.289-.249,2.378-1.524,2.496l-.726-.663c.012.479,1.177,1.562.094,1.442-.328-.236-.739-.653-.883-.529.171.361.91,1.774.158,1.912l-.709-.939c-1.098.536-.898,1.59-.456,2.67.449,1.09,1.119,2.203,1.074,3.092-2.553-1.31-4.103-.256-4.885.3l-.357-.194c-.648,1.06-.511,2.266-.168,3.474.385,1.244.919,2.479,1.145,3.68-1.687.157-2.361,1.196-2.825,2.378-.496,1.188-.759,2.506-1.847,3.406.574-.222,2.177.51,2.389.932-.669.386,1.696,1.707-.878,1.159l.084-.167c-2.623-.09-2.103,1.083-2.305,1.876l3.382.646c-2.623.646-2.364,2.114-1.957,3.389.388,1.291.899,2.415-1.374,2.826.822.559.767,1.174,1.609,1.707l-1.842-.122c-.541,1.364-.797,2.066-.384,3.787l-1.312-.37c-.146.991,5.312,1.265,5.418,2.107l-2.753.279c.052,1.633-2.301,3.442.28,4.956-.405-.004-1.201-.008-1.326-.273-.042.779-1.657,3.183,2.087,2.6-1.229.105-1.249.538-.82,1.039.215.25.542.516.888.766.179.124.355.245.521.36.173.126.354.308.507.433l-1.829.017c2.448.817,3.067.668,3.959,1.739-.159.327-1.355.607-.991.097-.673,1.205,1.839.296,1.235,1.626-.411-.014-.827-.027-1.237-.058.168.976.745.718,2.179.747.879.269.18,1.743-1.255,2.528.976-.271,2.391-.367,2.176.302-.531.327-.965.318-1.174.303-.231.955.502,1.25,1.136,1.478.645.229,1.186.409.655,1.297-.513.315-.74.522-.853.687-.56-1.084-.921-2.006-.757-1.987-1.507.746-1.273,1.821-3.719,2.134.763.102,1.924.136,2.849.282.931.144,1.651.38,1.559,1.004-.115.125-.227.247-.428.413l-.212.01c-.028.285.216.375.558.385-.064.409-.127.688.015.956-1.103.861.028,1.396.269,1.844,1.478-1.083,1.601-.393,2.494-1.754-.063.138-.23.051-.477-.169-.086-.029-.158-.084-.274-.062.045-.019.098-.041.152-.064-.229-.227-.489-.553-.768-.937.992-.179,1.84-.297,1.307.705,1.059-.442,2.19-.914,2.792-1.165-1.75,1.981-2.051,3.832-3.181,4.958,1.737.559,2.856,2.371,5.988.647.597-.018-.392,1.015-.671,1.505-.414.068-.575-.175-1.026.07,1.203.007,2.01,1.536,3.798-.094.004,1.494-1.94,1.224-.622,1.905l-.641.416c-.101,1.186.351,1.717,1.04,1.88.703.155,1.632-.044,2.519-.234.906-.206,1.769-.406,2.381-.192.63.199,1.011.803,1.037,2.276-.032-.37-.045-.551.129-.916.948,1.841,2.883,2.324,4.709,2.679.903.221,1.821.358,2.629.789.838.36,1.574,1.022,2.285,2.042.883.897,1.319-.557,2.11-1.615l-.112,1.973c.485-.692.945-1.389,1.379-2.091.808-.701,1.274.5,1.921,1.589.623,1.095,1.455,1.906,2.414.349l-.256-1.327c.684.291,2.041-.878,2.036.663.055-.246.115-1.388.428-.716l.108,1.025c.511-.61.979-1.3,1.425-1.942.66.287.777,1.302.946,2.242.167.928.415,1.829,1.425,1.719.699-.545,1.395-3.348.958-3.96-.282.007-.825-.484-1.059-1.49l.453-.64c-.557-2.982-1.045-6.05-2.533-7.913-.113.654-.244,1.313-.395,1.977l-.488-1.408c.199-.057.397-.144.594-.212-.597-1.287-.574-.035-.705.819-.18-.766-.361-1.295-.538-1.565-.091.986-.213,1.979-.366,2.975-.208-1.17.054-2.387-.474-2.973-.207,1.375.608,2.618.099,3.549-.504-1.352-.452-2.481-.8-1.28-.105-.776-.043-1.279.088-1.631-.298.953-.911.47-1.079,2.061-.373-1.71-1.3.435-1.149-2.436-.123.677-.747,2.197-1.121,2.289.461-1.689.147-1.765-.19-1.868-.343-.128-.725-.306-.381-2.116-.412,1.489-.869,1.811-1.322,1.866-.459.059-.922.002-1.528.698.108-.224.318-.681.344-.508-.364-.376-.23-1.306-.313-1.936-.783,2.447-1.647,2.776-2.587,4.102.294-2.509,1.355-2.699,1.961-4.996-.648,1.963-1.574,1.638-2.034,3.298.161-1.592-.079-.841.546-2.875-1.325,2.905-.558.351-1.698,1.995.099-1.712,1.151-2.771.128-2.195.083-.505.388-.942.661-1.26.273-.317.516-.511.516-.511ZM57.846,302.345c.015-.009.026-.015.031-.019.118.115.218.213.283.276-.062-.055-.149-.131-.314-.257ZM57.052,301.006c.027.2.128.414.257.627-.525.36-1.119.628-1.168.468.409-.129.55-.64.912-1.095ZM48.218,310.917c-.402-.14-.163-.436.125-.68.114.115.262.24.504.368.058-.026.145-.065.208-.093-.308.17-.601.323-.838.405Z"/>
    <path class="cls-1" d="M50.543,310.052c.059.015.138-.008.186.032.094-.145.173-.275.23-.39-.184.079-.369.159-.538.232.041.042.084.086.123.126Z"/>
    <path class="cls-1" d="M153.409,224.931l-.018-.056c-.001.08-.006.159-.038.273.015-.092.04-.143.056-.217Z"/>
    <polygon class="cls-1" points="58.014 279.741 57.552 279.71 57.947 279.879 58.014 279.741"/>
    <path class="cls-1" d="M158.227,235.415c-.089.133-.173.284-.214.435.073-.094.144-.256.214-.435Z"/>
    <path class="cls-1" d="M160.732,238.337l-.12.838c.12-.419.135-.666.12-.838Z"/>
    <path class="cls-1" d="M161.92,241.103c.275-.171.472-.312.653-.443.002-.005.001-.006.007-.012l-.66.455Z"/>
    <path class="cls-1" d="M118.614,228.795c-.041.011-.08.036-.114.087-.261.366-.08.218.114-.087Z"/>
    <path class="cls-1" d="M133.486,225.051c-.197.311-.389.616-.575.801.245.172.442.233.575-.801Z"/>
    <path class="cls-1" d="M103.213,232.964c-.003-.015-.002-.013-.005-.031-.031.013-.061.013-.094.02l.099.012Z"/>
    <path class="cls-1" d="M132.229,225.748c.225.389.451.33.682.104-.199-.151-.436-.358-.682-.104Z"/>
    <path class="cls-1" d="M166.214,251.908c-.014.045-.032.091-.052.136.119-.025.216-.037.291-.042l-.239-.094Z"/>
    <path class="cls-1" d="M166.454,252.002l.233.097c-.01-.063-.032-.116-.233-.097Z"/>
    <path class="cls-1" d="M167.187,252.31l-.5-.212c.011.102-.027.234.5.212Z"/>
    <path class="cls-1" d="M166.051,248.316l-.638.195c.137-.028.344-.09.638-.195Z"/>
    <path class="cls-1" d="M165.474,247.37c-.042.31-1.082,1.13-.568,1.296l.507-.155c-.979.213,1.19-1.326.061-1.141Z"/>
    <path class="cls-1" d="M170.168,238.83l.194,1.297c.495-.54,1.148-1.289,1.598-.894.95-2.448-1.178,1.096-1.792-.403Z"/>
    <path class="cls-1" d="M168.769,235.164c.677.312.799-.647,1.13-.874-.778.066-.961.099-1.13.874Z"/>
    <path class="cls-1" d="M146.24,220.596l.546-1.575c-.552.077-.19.617-.546,1.575Z"/>
    <polygon class="cls-1" points="139.507 227.749 139.685 228.844 140.214 227.398 139.507 227.749"/>
    <polygon class="cls-1" points="138.982 215.551 139.242 215.356 138.308 215.803 138.982 215.551"/>
    <path class="cls-1" d="M94.656,218.545l.702,1.934c.214-.442-.334-2.684-.702-1.934Z"/>
    <path class="cls-1" d="M77.641,227.847c-.686-.787-1.498-1.075-1.277-.034.449-.101,1.219.375,1.277.034Z"/>
    <polygon class="cls-1" points="42.141 273.294 41.512 272.799 41.982 273.632 42.141 273.294"/>
  </g>
  <g>
    <path class="cls-1" d="M281.254,322.099c-.633.193-1.306,1.306-.416,1.697l1.886-1.248-1.47-.449Z"/>
    <path class="cls-1" d="M283.811,329.131c1.527-.153,3.617-1.014,4.132-3.038-2.064,1.121-1.751.235-4.162,1.548-.927-.362-.932-1.53-.319-2.066-.611.244-.833-1.28-2.078-.538-.042,1.031.231,1.841.81,2.339.585.49,1.443.707,2.505.627.012.594-.59.853-.888,1.128Z"/>
    <path class="cls-1" d="M375.664,350.491l-.656-.183c.187.121.411.174.656.183Z"/>
    <path class="cls-1" d="M431.303,327.18c-.309.362-.31.655-.196.816.227-.406.4-.751.196-.816Z"/>
    <path class="cls-1" d="M440.44,320.998c-.205.136-.356.266-.53.398.311-.059.557-.178.53-.398Z"/>
    <path class="cls-1" d="M375.664,350.491c.564.171,1.127.296,1.695.446.013-.719-.892-.382-1.695-.446Z"/>
    <path class="cls-1" d="M297.342,331.137c-.331-.031-.64.016-.971.145.27.032.518.086.777.139.064-.098.119-.185.194-.284Z"/>
    <path class="cls-1" d="M349.066,353.18l-.492-.026c-.157.236-.308.525-.455.851l.946-.825Z"/>
    <path class="cls-1" d="M328.639,351.424c.449.148.886-1.638,1.179-2.403-.369.707-.762,1.012-1.184,1.091-.062.343-.067.764.005,1.312Z"/>
    <path class="cls-1" d="M298.225,339.705l-.63.01c.17-.015.431.015.63-.01Z"/>
    <path class="cls-1" d="M363.805,353.629c.046.27.131.506.217.646-.01-.23-.094-.445-.217-.646Z"/>
    <path class="cls-1" d="M153.015,224.726c-.121-.051-.206-.055-.313-.092.146.153.262.22.313.092Z"/>
    <path class="cls-1" d="M140.952,245.098l-.09-.322c-.346-.033-.686-.068-1.024-.067l1.114.389Z"/>
    <path class="cls-1" d="M453.356,304.953c-.037.028-.043.041-.073.069-.053.583.052.287.073-.069Z"/>
    <path class="cls-1" d="M348.294,237.124c-.462,1.162-1.007,1.638-1.637,1.959-.569.355-1.284.559-1.584,2.354.246-.463,1.05-.917,1.754-1.694.71-.749,1.255-1.753,1.467-2.62Z"/>
    <path class="cls-1" d="M297.678,331.559c.239.089.48.184.707.31-.292-.203-.51-.296-.707-.31Z"/>
    <path class="cls-1" d="M345.073,241.438l-.013.018-.028.358c.017-.156.027-.243.042-.376Z"/>
    <path class="cls-1" d="M455.1,257.382c-.277.195-.452.453-.615.714.174-.073.36-.247.615-.714Z"/>
    <path class="cls-1" d="M453.871,292.332l.446-.769c-.245.29-.367.541-.446.769Z"/>
    <path class="cls-1" d="M444.577,242.145c-.161-.462-.053-.744-.628-1.119-.04.105-.058.191-.065.292.338.037.616.223.693.827Z"/>
    <path class="cls-1" d="M431.004,228.955c.008.172.063.332.092.499.176.077.381.168.563.248l-.655-.747Z"/>
    <path class="cls-1" d="M177.856,184.925c-.604-.157-1.149-.436-1.657-.741,1.056.808-.38,2.672,1.657.741Z"/>
    <path class="cls-1" d="M296.896,332.065c.289-.374.515-.522.782-.506-.177-.06-.354-.102-.53-.138-.163.225-.286.451-.252.644Z"/>
    <path class="cls-1" d="M432.482,250.079c-.367-.649-.697-1.34-1.14-1.93.297.555.675,1.286,1.14,1.93Z"/>
    <path class="cls-1" d="M285.766,158.415c-.191.01-.389.035-.582.053.188.099.388.098.582-.053Z"/>
    <path class="cls-1" d="M426.622,243.665c.118-.726.027-1.275-.162-1.737-.162.054-.317.081-.496.209l.658,1.528Z"/>
    <path class="cls-1" d="M176.183,184.173c.01.003.017.011.017.011,0,0-.007-.008-.017-.011Z"/>
    <path class="cls-1" d="M168.251,199.187c.703-.918.42-1.491-.148-2.001-.572-.513-1.437-.956-1.814-1.583,1.322-2.648,2.227.099,3.787.151.318-.87.259-1.944.28-2.897.031-.944.104-1.799.595-2.26.359.195.64.105.799.664-.05-1.328.851-2.431,1.858-3.473.991-1.064,1.929-2.224,1.952-3.864.27.048.469.142.622.249-1.083-.654-1.957-1.518-2.487-2.212.818-.767.58-2.524,1.935-1.618-.552.421-.177.936-.092,1.514l.434-1.287c2.272,1.02-.689,1.642.426,2.888.598-1.009,1.091-2.305,1.662-3.442.597-1.103,1.291-2.019,2.174-2.31,1.638,1.529-2.721,3.076.319,3.196-.88.307-1.728.666-2.573,1.041,3.77,1.342-1.349.856,2.45,2.496,1.452-.89,2.064-1.613,2.617-2.438.284-.401.57-.804.976-1.206.397-.41.934-.799,1.734-1.149-.087-1.442-1.278-1.324-1.356-2.775,1.408-2.344,3.007-1.785,4.405-1.107,1.398.651,2.556,1.346,3.286-.868-.006-1.765-1.07-4.333,1.947-4.37l.472,2.614c3.007-1.443-.076-4.134,3.889-4.287-.116,1.167-1.985,1.955-1.391,1.984,2.948.705.779-1.997,2.372-2.819l1.309,1.818c1.528-.937,3.038-2.153,4.611-3.417,1.614-1.175,3.259-2.476,5.099-3.348.02.694-.373,1.576.746,1.888,4.315-2.878,10.336-3.214,15.313-3.106l1.354-2.301c.429-.084.977.65.607,1.122,2.001.257-.179-1.21.547-2.153,1.044-.354,1.644.781,1.096,1.481,2.884-2.318,8.87-5.289,12.717-3.691l-.614.661c2.824.364,2.659-4.269,5.457-2.803l-.463.392c1.534.02,3.098-.039,4.654-.166,1.555-.142,3.109-.28,4.624-.33,3.025-.149,5.904.082,8.165,1.533.433-1.372,1.924-1.06,3.321-.839,1.401.217,2.719.328,3.035-1.571,1.643,1.053,2.162,1.777,2.867,2.403.688.655,1.567,1.217,3.68,2.187,1.135.358,2.159-2.075,3.749-2.16l-.382,1.972c.791-.537,1.616-1.092,2.445-1.593.158.867.3,1.73.426,2.588l1.441-.118c-.481-.264-.861-1.191-.627-1.726,1.178-.14,2.37.597,3.15,1.514.777.944,1.175,1.993,1.005,2.479.43.018.867.025,1.301.054l1.292.145c.861.118,1.772.156,2.634.348-.239.329-.574.452-.948.511-.383.079-.807.1-1.214.194,1.652-.375,1.512.211,1.334.728-.172.534-.402,1.063,1.098.822-.059-.555.741-.957.995-1.281.118.417.362.798.676,1.177.307.395.695.764,1.134,1.101.437.34.934.631,1.433.911.489.298.998.555,1.493.759l-1.136.883c2.723,2.405,6.484,4.385,9.356,7.592-.56-1.554,1.416-2.973,2.477-2.143l-1.238,1.807c1.531-.238-.298-1.56,2.04-1.32.925,1.432-1.104,2.405-2.225,2.171l1.851,1.006c-.414.491-.967.35-1.666.786.778-.138.873.889,1.098,1.823.224.943.555,1.817,1.799,1.621l-.445.463c2.488,3.441,4.078,4.767,5.948,7.784,1.636-.826,1.939.606,3.771.886.358,1.336.509,2.843.763,4.345.2,1.537.552,3.028,1.194,4.522,1.685,1.791,1.696.057,3.087.64-1.501.758-.245,3.764-1.949,2.578.788,1.786,1.246,2.954,1.875,4.208.624,1.259,1.4,2.608,2.719,4.869.517-.706.631-1.383,1.268-1.224.527.819-.142,2.221-.946,2.289l-.226-.192c1.946,2.435,1.491,5.977,1.035,9.262-.446,3.298-.916,6.391,1.166,8.375l-.209-.227c.842,1.469,1.684,2.95,2.505,4.451.028,2.222-1.431-1.13-2.22.627.808,1.15,1.211,1.766,1.625,3.769.36,1.662.509,3.221.618,4.782.048.462.095.918.142,1.372.055.445.191.796.285,1.197.209.777.432,1.55.69,2.306.129.378.266.752.415,1.119.168.34.389.616.599.913.238.284.509.552.786.809.315.242.611.493.979.69.032,1.882,1.189,3.575,3.048,4.705.937.531,2.027.957,3.196,1.154,1.168.192,2.39.227,3.575.067,1.188-.192,2.235-.364,3.433-1.18,1.161-.662,2.294-1.29,3.399-1.838.553-.274,1.099-.528,1.64-.757.273-.109.543-.217.809-.324.268-.093.536-.191.809-.354,1.084-.567,2.157-1.025,3.263-1.271-.335-.241-.663-.488-.982-.74.301-.542.589-.855.893-1.042.177-.11.267-.128.358-.123.098,0,.204.019.313.049.436.119.937.407,1.346.293-.585-.692-1.568-.206-1.341-1.115,3.564-3.137,7.986-5.328,12.601-6.738,4.614-1.433,9.333-2.276,13.696-3.019,1.579-.297,1.627-1.814,1.898-3.128.134-.65.321-1.234.776-1.556.227-.159.52-.26.904-.254.385.026.859.148,1.439.394-.251.775-.487,1.546-.71,2.314,2.903-1.864,6.301-2.415,9.521-2.334,3.277-.088,6.303.454,9.566-.092-.467.428-.601,1.061-1.181.96.245.438.649.697,1.123.84.46.193.994.259,1.522.229,1.05-.063,2.099-.505,2.306-1.11.877.411-.138,1.159.198,1.968.432.667,1.319.476,2.156.344.827-.13,1.613-.23,1.563.657-.014.289-.504.283-.775.327,1.042-.342,3.214,1.845,3.398-.094.414.415.836.78,1.295,1.06.46.278.952.483,1.434.687.99.359,1.815.939,2.203,1.903,1.088-.406,1.769.358,2.283,1.116.548.725,1.083,1.283,2.242.419-1.101.985-.777,2.069-.061,3.048.75.944,2.07,1.682,3.029,1.918-1,.137.012,1.594-1.326,1.85.483.659,1.105,1.174,1.657,1.478.56.294,1.162.294,1.727-.235-.339,1.15-.17,1.938.252,2.571.407.64.988,1.176,1.577,1.676.572.507,1.132.992,1.294,1.585.139.604-.072,1.288-.956,2.118,3.352,4.044,5.541,8.676,6.685,13.402-.735.024-1.145-.287-1.392-.753-.26-.465-.421-1.084-.555-1.694-.284-1.219-.559-2.386-2.069-1.985.901,1.999,2.172,3.578,2.929,5.285.388.849.821,1.721.946,2.665.15.943.171,1.959-.006,3.076-.425,1.135-1.258-.709-1.776-1.083.343,1.1.358,2.182.324,3.245-.016.532-.05,1.058-.09,1.58-.042.522-.172,1.023-.252,1.53-.204,1.01-.291,2.004-.448,3.014-.149,1.011-.192,2.035-.049,3.122-.26-.086-.445-.587-.563-1.037-.05.392-.255.806-.303,1.151-.065.342.053.626.706.778-.039-.282-.056-.557-.115-.841,1.082-.35,1.897.688,2.41,1.915.541,1.224.895,2.656,1.353,2.903-1.595-1.328-2.107-.377-2.807.354-.704.748-1.459,1.289-3.3-.595.039.566.375,1.415,1.247,1.647-.542.635-1.109.643-1.751-.473-.099.72-.065,1.245.015,1.66.06.407.184.71.288.997.21.574.344,1.087-.253,2.271-.572-.304-.561-.894-1.126-1.47.269.861.566,1.762.538,2.641-.037.873-.34,1.755-1.137,2.595-.267-.317-.832-.354-.493-.924-.217.427-.385.863-.521,1.307-.159.431-.291.867-.401,1.311-.223.887-.377,1.8-.58,2.71-.23.892-.545,1.758-1.005,2.59-.456.834-1.085,1.614-2.046,2.236-1.337-2.765-1.666.528-3.64-.905-.287.739-.62,1.451-.974,2.156l1.503.137c-1.418,1.406-1.372,4.01-3.255,4.619l.408-1.755-2.456,2.937,2.205-.806c-.68,2.349,2.274,2.108-.256,3.513.28-.557-1.659,1.355-3.396.945,0,0,.005-.005.001-.01-.277,1.285-.687,2.545-2.288,3.017-.782-.384-1.348-2.354-1.863-2.612.439,2.292-3.578,3.199-3.487,5.721.099-.654-.573-1.738-.832-1.886l.154,1.835c-1.108.051-1.355-.099-1.752-1.048-2.607,1.217,2.373,2.181-1.259,2.802.173-.243-.063-.399.293-.905-1.664.555-3.005,1.544-4.34,2.526-1.373.897-2.708,1.851-4.346,2.082-.914-.949-.332-1.346.24-1.698.561-.378,1.118-.701.22-1.418-.939.599-1.929,1.198-2.875,1.919-.948.724-1.921,1.442-2.92,2.113-1.973,1.399-4.094,2.524-6.302,2.892.293.019.584.029.872.029.199,1.763-.75,1.562-1.926,1.202-1.186-.373-2.57-.871-3.484.146.481-.372.251-2.024.199-1.617-3.057.123-5.801,2.208-10.277,3.931l.44-.965c-1.883-.485-4.751.157-6.718-.042-.489.928-1.62.876-.831,2.107-1.619-1.139-3.094-1.465-4.534-1.463-1.436.021-2.823.472-4.211.873-2.759.86-5.543,1.726-8.167-.452.641.014,1.539-.726,1.032-.742l-4.573.649c.288,1.53.552.94,1.47,2.145-.618.882-1.965,1.509-3.119,1.431,2.142-.871.109-2.416-.717-3.307.12.469-.217.959-.171,1.432-2.216-2.822-.615,3.022-3.786.948l.24-.773c-1.261.297-2.502,1.256-3.813.876-.373-1.792,1.394-.667,1.614-2.088-1.843-.103-4.029,2.91-5.515.963.847-.371,1.986-.263,2.827-.658-1.6-2.221-1.856-1.738-3.162-2.234l.126.063c-.994-.446-1.99-.861-2.967-1.332l.706.668c-1.454,2.077-2.676,2.102-3.952,1.922-1.278-.201-2.602-.624-4.434.563,3.529-2.237.789-1.514,1.384-3.412-.686-.665-1.73-1.526-1.292-1.996-1.739,1.265-2.105-1.673-4.588.126.052-.638-1.499-.408-.812-1.887-1.939.068.172,1.174-.159,1.916-1.681.753-3.189-.367-4.845-1.361-1.642-1.071-3.409-2.035-5.844-1.305-1.911.033-3.19.415-4.472.823-1.285.415-2.536.775-4.345.586-.343-.694.109-1.132.636-1.402.528-.269,1.131-.368,1.131-.368-.674-.79-1.339-1.271-2.075-1.564-.722-.319-1.518-.443-2.462-.482.557-.352.426-.932.266-1.793-1.311-.422-1.854,1.662-3.06-.007.607-.481,1.482-1.305,2.375-1.638-1.661-.215-3.651.126-5.382-.258.176-1.179,1.713-.947,2.556-1.29-.914-.246-2.071-.629-3.185-.805-1.104-.189-2.138-.22-2.868.36l.69,1.194c-.633-.309.51-1.464,1.098-1.463,2.069-.328,1.677,1.695,1.44,2.309l-1.253-.258c-.423,1.907.747,2.426,2.233,2.596,1.523.121,3.318-.07,4.362.554-.706.674-1.411,1.326-2.125,1.97,1.091-.26,2.203-.61,3.274-.924.182.865-.099,2.404-1.4,2.243,1.092,1.971,1.827-.17,2.661,1.788.067.28-.056.37-.247.407l1.952-.06c-.538.392-.453,1.885-1.321,1.098.592.671,1.244,1.018,1.884,1.192.648.151,1.284.134,1.852.107,1.138-.056,1.996-.137,2.228,1.03l-.31.07c4.506.538,1.078-1.737,4.891-2.93.194,1.784.429,3.545.686,5.332l.98-1.786c.416.197,1.238.596.864,1.314,2-.855-.045-.901,1.244-1.884.81,1.146,2.325,1.329,3.583,1.604,1.267.248,2.286.613,2.183,2.216,1.092-1.302-1.775-1.606.72-2.112-.079,3.5,2.746-.02,4.378,1.906-.927,1.608-2.631.315-.95,2.256,1.738-2.685,3.745,1.345,5.545,1.052.445-2.326,3.792-.409,6.707-.858-.279.783,5.143,1.906,7.734,2.943l-.11.39c.706-2.323,3.381-1.69,5.387-2.077-.153,1.427-.539,1.968-1.662,2.543l1.883.102c.482-.733,1.087-1.12,2.312-1.351l-.543,1.77c2.538.009,5.093-1.953,8.313-.77.142-1.67-2.528-4.615.765-5.777.134.899.285,2.44-.589,2.827.288-.122,1.013-.77,1.597-.396l-1.319,1.544c1.467.638.74-1.283,1.897-1.165.008,1.287.883.901.745,1.925-.296.13-1.032-.51-1.469.003,1.321.21,2.944.935,3.522,1.866-.147-.725-.07-1.731.887-1.946,2.494-.218.938,1.503,2.453,2.09.553-.932,2.234-.146,2.122-2.065.732-.049.944.834,1.276,1.33,1.233-.914,6.06-.913,4.351-2.76l-.345-.096c.057-.046.129-.057.199-.107h-.01s.01,0,.01,0c.994-.58,2.028-.914,3.099-1.076,1.069-.173,2.181-.125,3.29-.142,1.112,0,2.236.034,3.332-.033,1.094-.08,2.153-.304,3.136-.731l.139.627c1.155-.617,2.485-1.086,3.702-1.615,1.22-.515,2.323-1.1,2.968-2.046.7-.217,2.02.6,1.951,1.423,1.716-1.03,1.65-1.803,4.648-1.754-1.456,1.72.982.703-1.61,1.456,2.567-.336,3.539.438,5.4-2.255-.249,1.861,2.616,1.222,3.526.197-.713-.1-1.416-.195-2.127-.339,1.164-.744,2.291-1.161,3.46-1.543l.331,2.241c1.506.032,2.701-.49,3.67-1.292.977-.792,1.784-1.764,2.528-2.723,1.484-1.954,2.854-3.515,5.749-2.86.317-2.044-2.987.729-2.909-1.463,1.071-.546,2.562-.527,3.893-.445,1.339.101,2.449.178,2.771-.042,1.725-.551,1.891-1.663,2.002-2.811.098-1.178.15-2.379,1.746-3.187-.86-.3-2.462-1.601-1.073-3.792,1.879-1.37,4.355.363,3.651,1.874-.384.449-.757.461-.914.251-.376.749-.934,1.696.344,1.665l-.283-.794c1.416-.242,3.848-2.643,4.155-1.19.418-.926.314-1.308-.02-1.348-.335-.039-.927.237-1.576.556,1.547-.674,2.375-1.623,3.225-2.541.858-.916,1.609-1.936,2.958-2.949-.666.125-1.661-.108-1.323-.493,1.917-1.497,1.961-2.151,1.735-2.746-.217-.59-.676-1.127.136-2.486,2.019-.753,1.907,2.216,2.991-1.006,1.763-1.212,1.938.793,1.992,1.848.24-1.704,1.219-2.739,2.315-3.557,1.055-.84,2.195-1.48,2.766-2.188l-.288,1.75c.179-1.051.591-1.746,1.006-2.463l-1.819.061c.711-.695,1.12-1.398,1.678-1.081-.458-1.349-2.591-.558-2.98-2.897,1.237-.77.908-3.672,2.898-3.257-1.104,1.649-.641,1.743.039,1.859.664.108,1.486.187.88,1.799.069-.703.437-1.41,1.097-2.176.265-.041.339.303.324.589,1.621-1.425,1.244-2.105.681-2.829-.583-.743-1.307-1.536-.618-3.375.926.879,2.361-.146,2.338-.863-.539,1.551-2.06.086-2.455-1.546,1.669-2.112.135-2.792.569-4.007l-.771,1.324c-.992-.794-.549-1.928-.495-3.645.915.054.231,1.634.764,1.136-.379-.578-.378-1.087-.172-1.582.183-.503.545-1.002.947-1.528.775-1.048,1.745-2.246,1.189-3.676.888-1.17,2.171.12,2.797-.962-.62-1.639-.138-2.439.33-3.302.435-.852.903-1.767.285-3.432-1.556.984-1.175,1.088-2.689-1.127.346,1.736.766,3.504,1.03,5.302-.658-1.182-1.468-2.322-2.199-3.42-.013.775.228,1.597.438,2.353.214.754.299,1.439.141,1.9-1.135-1.665-.765-1.45-2.113-.799,1.289-.973.872-2.058.466-3.128-.447-1.081-.911-2.15-.252-3.382l3.851-.133c.69-1.968.157-3.693-.757-5.416-.43-.87-.887-1.757-1.226-2.734-.355-.975-.687-2.021-.719-3.273l-.298,1.676c-.821-.156-1.039-.859-1.175-1.705-.068-.423-.116-.881-.206-1.319-.101-.435-.279-.839-.539-1.167,1.279-.22,1.433-1.294,1.987-2.197-.442.185-.695-.688-1.16-1.553-.481-.86-1.259-1.675-2.524-1.409.259-.869.51-1.757.752-2.662-.462-1.982-1.881-2.594-3.185-3.139-1.303-.561-2.695-.965-3.452-2.629,1.776.239,1.665-1.717,3.853-.016-.65-1.111-1.053-2.231-1.819-1.776.132-.522-.643-1.087-1.518-1.622-.863-.547-1.696-1.137-1.547-1.972-.782-.088-1.911.561-2.692-.572.104-.278.5-.395.5-.395-.508.384-2.077-1.081-2.389.735.167-1.336-.209-2.527-.869-3.588-.727-1.003-1.72-1.886-2.707-2.732-.986-.852-2.104-1.519-2.916-2.38-.418-.417-.768-.879-1.06-1.363-.308-.462-.534-.978-.655-1.57-2.538-1.247-5.704-2.394-8.003-3.314.3-.296.261-.586.649-.292-1.377-1.176-2.236-.516-3.085.128-.428.321-.86.636-1.372.71-.516.081-1.089-.126-1.902-.661-1.282-2.507,2.293-.534,1.356-1.611.397-2.084-.85-2.279-2.37-2.31-.762-.011-1.587-.002-2.356-.143-.779-.094-1.496-.379-2.06-1.098l.692-.138c-.9-.871-2.252-.713-3.719-.359-1.482.436-3.067,1.015-4.703.757,0,0,.171-.364.037-.638-1.167,1.052-2.755,1.837-4.414,2.389-.833.251-1.669.591-2.487.854-.812.257-1.605.509-2.335.741.717-1.741,1.27-1.016.484-2.625-.682.192-.492.852-.472,1.558.025.73-.132,1.406-1.393,1.886-.98-.743-3.039-1.172-3.669-2.882l2.568-.569c-.853-1.026-1.715-.849-2.515-.437-.808.401-1.542,1.06-2.249,1.052l-.058-1.033c-1.939.663-2.749,1.619-3.581,2.512-.82.931-1.646,1.84-3.674,2.398l.659.594c-.672,1.549-1.223,1.352-1.813,1.124-.587-.241-1.223-.551-1.934.737l-1.588-2.142c-.293.291-.696.692-1.169,1.162-.452.487-.971,1.046-1.518,1.635-1.083,1.17-2.314,2.302-3.371,3.148.238-1.212.988-2.347,1.856-3.414.868-1.066,1.829-2.105,2.541-3.004-1.414.579-4.672,2.28-4.814,3.764.426-.499.872-1.367,1.584-1.261-.427,1.29-1.059,2.412-1.889,3.41-.835.989-1.913,1.775-3.206,2.447-.952-2.325-2.793-1.651-4.87-.681-2.065.989-4.267,2.358-6.252,1.291-.434.557-.894,1.062-1.388,1.516l-.375.333c-.122.105-.104.113-.166.17-.087.09-.184.173-.284.245-.403.281-.857.436-1.258.484-.411.041-.735.033-1.075-.044-.351-.093-.689-.241-1.101-.293-.406,1.328-.558,2.019-.72,2.348-.154.333-.281.312-.434.288-.296-.055-.663-.226-1.955,2.312-.917-.236-1.018-.71-.862-1.038.109-1.645.831-3.196,1.47-4.358,1.019-1.205.86-.172,1.657-1.002.09-.524.473-.87.946-1.241.475-.359,1.035-.795,1.529-1.092-.597.35-1.042.619-1.316.696-.336.117-.411-.049-.137-.273-.552.272-1.088.671-1.608,1.195l-.081.082c-.023-.003-.046-.006-.067-.004-.5-.094-.569-.408-.406-.661.161-.262.552-.494.948-.666.71-.959,1.38-2.062.041-4.035l1.438,1.188c-1.019-2.098-1.233-8.25-4.808-9.846.381-.472,1.357-1.193,1.819-.266-.241-2.706-1.692-5.514-2.973-8.157-1.3-2.651-2.417-5.138-2.059-7.443l1.05.138c-.555-.917-2.224-1.208-1.668-2.708.405-.053,1.052.117.968-.356-.479-.434-2.422-2.098-2.327-3.556l1.409.763c-.234-2.771-1.586-4.536-3.138-6.035-1.547-1.506-3.338-2.753-4.542-4.658,1.321-.588,1.739-1.943,1.729-3.44,0-.749-.102-1.532-.238-2.264-.157-.723-.352-1.392-.507-1.93l.394-.123c-.345-.739-.719-1.429-1.116-2.078-.423-.636-.869-1.231-1.331-1.793-.464-.561-.936-1.093-1.433-1.595-.513-.494-1.038-.964-1.567-1.421l-1.603-1.341c-.557-.424-1.117-.85-1.684-1.282-.561-.431-1.119-.87-1.672-1.328-.574-.444-1.151-.901-1.716-1.391.046-1.2-.352-2.484-1.103-3.76-.366-.644-.8-1.299-1.279-1.962-.492-.653-1.06-1.291-1.633-1.946-1.126-1.329-2.461-2.574-3.673-3.871-1.228-1.284-2.451-2.516-3.374-3.851.418.999-1.497,1.649-2.534,1.265-.396-.654-1.481-.833-2.236-1.086-.758-.252-1.239-.546-.409-1.586l.4.32c.536-2.718-2.395-3.867-4.464-5.016l-1.978,2.838c-.67-1.859-2.095-3.007-3.692-3.928-.808-.445-1.713-.731-2.611-1.009-.904-.263-1.812-.505-2.721-.646-3.629-.662-6.812-.745-7.989-3.262-1.59.562-3.338.254-4.843.928l.327-1.818c-3.879-.969-5.883-1.394-10.688-1.117l1.024-1.29c-2.751-.201-3.512,5.231-5.877,5.349l-.752-2.747c-2.294.037-4.59-.452-6.898-.619-2.302-.203-4.602.028-6.737,1.444.038-.408.102-1.212.833-1.381-2.14.04-8.544-.977-7.291,2.663-.356-2.413-4.722.37-6.928,1.882l.079-1.856c-1.664,2.655-1.61,3.253-4.295,4.425-.708-.094-.865-1.305.111-1.033-2.413-.469-1.381,2.044-4.256,1.657l.752-1.342c-2.321.331-1.999.949-2.928,2.553-1.238,1.045-4.366.599-5.138-.857-.046,1.053-.904,2.688-2.347,2.604-.353-.545.019-1.05.21-1.3-2.063-.084-3.295.912-4.388,1.74-1.094.844-2.051,1.535-3.603,1.175-.254-.548-.52-.77-.793-.864,1.471-.539,2.828-.928,3.785-1.187.957-.26,1.516-.38,1.424-.281-.494-1.6-3.037-1.085-1.798-3.917-.797.932-1.825,2.28-2.936,3.477-1.113,1.201-2.333,2.169-3.637,2.229-.171-.11-.338-.218-.517-.427l.174-.264c-.603.035-1.022.386-1.367.831-.837.048-1.383.052-2.102.322-.805-1.165-3.032.427-4.213.938.846,1.627-.778,2.053,1.258,2.777-.236-.035.126-.298.858-.72.151-.129.343-.248.413-.399-.004.053-.009.116-.014.184.739-.378,1.726-.82,2.849-1.318-.568,1.251-1.212,2.334-2.888,1.968-.112,1.348-.247,2.744-.364,3.424-1.295-.809-2.849-1.174-4.23-1.484-1.361-.269-2.55-.487-3.119-1.08-.755.678-1.623,1.318-2.507,1.962-.868.677-1.747,1.371-2.547,2.1-1.615,1.43-2.834,3.143-2.916,5.238-.672.952-1.586-.16-2.23-.391.345-.629,1.01-.99,1.035-1.592-1.416,1.862-5.225,3.957-4.237,6.19-2.865.723-.068-2.726-2.874-.134l-.036-.905c-2.062.4-3.511,1.39-4.585,2.671-1.04,1.327-1.738,2.91-2.448,4.459-.695,1.57-1.338,3.175-2.433,4.474-1.112,1.289-2.488,2.455-4.828,3.128.614-.218.911-.332,1.288-.146-2.035,1.311-3.609,3.128-5.14,4.981-.74.948-1.39,1.973-2.055,2.982-.656,1.016-1.316,2.028-1.89,3.097-.596,1.053-1.197,2.097-1.825,3.117-.625,1.023-1.192,2.077-1.86,3.065-1.363,1.963-2.72,3.903-4.577,5.608-1.8,2.107-.47,3.064-.061,4.975l-2.042-.248c.303,1.138.679,2.282,1.074,3.41.126,2.109-1.664,3.207-3.13,4.675-1.491,1.434-2.965,3.157-1.959,5.99l1.435-.31c-.325.832-.456,2.241-.68,3.357-.183,1.126-.428,1.98-1.161,1.699.207.226,1.261.811.467,1.378l-1.025-.113.514,2.292c.184.758.431,1.517.646,2.264-.533,1.625-1.538,1.415-2.495,1.392-.93-.018-1.924.157-2.15,2.731.338,1.981,2.854,5.437,3.56,4.712.07-.742.691-1.881,1.724-1.913l.493,1.635c1.51.141,3.042.503,4.465.345,1.42-.159,2.751-.809,3.858-2.554-.588-.841-1.211-1.707-1.772-2.594l1.548-.703-.057,1.047.021,1.048c1.381-1.11.282-1.904-.482-2.835.799-.133,1.379-.428,1.715-.883-.868-.898-1.803-1.837-2.608-2.798,1.226-.122,2.152,1.399,3.073-.115-1.139-1.34-2.82.724-3.372-1.333,1.565-1,2.609-.427,1.683-2.047.8-.05,1.24.343,1.488.948-.775-1.412.301-3.297-1.136-4.312.988-.418,1.075-1.489,1.377-2.339.297-.85.682-1.491,2.039-1.018-.53-.552-1.551-2.799-1.24-3.954,2.502,3.125,1.726-4.039,4.951-2.155-1.171-1.288-.875-2.708-.411-4.211.432-1.524,1.29-3.013,1.152-4.669.145.255.446.758.194.904.96-1.275,1.94-1.257,2.972-1.816-2.129-1.413-1.379-3.84-2.023-5.856,1.583-.184,2.051.486,2.418,1.257.383.786.698,1.697,1.855,2.059-1.869-1.018.062-3.886-1.74-4.291,2.097-.401,1.332-.667,3.494-.1-1.241-1.012-1.166-1.384-.884-1.756.297-.365.786-.729.367-1.805,2.556-.793,2.722,1.355,3.346-1.111.723-.136.983.381,1.08.931.096.55.019,1.128.019,1.128ZM210.19,162.496c.006.016.011.028.013.034-.456.213-.845.395-1.093.51.225-.113.536-.271,1.08-.545ZM214.798,160.818c-.594.109-1.304.334-2.035.627-.374-.538-.416-1.215.064-1.355-.116.486,1.1.433,1.971.728ZM200.107,152.842c.688-.565,1.093-.343,1.345-.042-.359.183-.769.42-1.288.77.004.072-.012.164-.004.244-.064-.352-.108-.689-.053-.973Z"/>
    <path class="cls-1" d="M199.67,155.65c-.094.087-.123.186-.26.267.221.075.425.133.621.167.013-.223.027-.45.038-.65-.135.073-.274.148-.399.216Z"/>
    <path class="cls-1" d="M374.894,350.279l.114.029c-.099-.061-.191-.124-.26-.233.083.08.09.137.146.204Z"/>
    <polygon class="cls-1" points="280.783 158.045 280.873 157.591 280.41 157.906 280.783 158.045"/>
    <path class="cls-1" d="M346.821,344.697c-.042-.164-.134-.336-.329-.488.008.12.152.296.329.488Z"/>
    <path class="cls-1" d="M335.054,343.164l-1.574-.86c.667.459,1.168.702,1.574.86Z"/>
    <path class="cls-1" d="M326.233,340.893c-.17.296-.246.529-.316.743.006.006.011.007.015.016l.3-.759Z"/>
    <path class="cls-1" d="M441.86,289.839c.017-.109.021-.221-.003-.328-.164-.805-.15-.286.003.328Z"/>
    <path class="cls-1" d="M422.721,325.434c.136-.549.265-1.085.489-1.543-.663.375-1.129.72-.489,1.543Z"/>
    <path class="cls-1" d="M432.599,250.295c.011-.003.013-.009.028-.015-.056-.066-.095-.131-.145-.201l.117.217Z"/>
    <path class="cls-1" d="M424.729,322.656c-.815.209-1.238.666-1.519,1.235.548-.301,1.229-.628,1.519-1.235Z"/>
    <path class="cls-1" d="M290.652,327.249l-.307-.292c-.059.106-.132.176-.198.222l.505.069Z"/>
    <path class="cls-1" d="M290.147,327.18l-.504-.07c.179.116.341.205.504.07Z"/>
    <path class="cls-1" d="M288.571,326.963l1.072.147c-.281-.188-.598-.463-1.072-.147Z"/>
    <path class="cls-1" d="M300.5,333.345l.389-.558c-.122.099-.252.278-.389.558Z"/>
    <path class="cls-1" d="M303.855,334.531c-.739-.458-1.416-2.125-2.654-2.186l-.312.443c.888-.704,1.789,2.481,2.966,1.744Z"/>
    <path class="cls-1" d="M316.154,346.972l-2.971-1.321c.355.824.838,1.934-.634,1.725,3.423,3.074-.405-1.738,3.605-.404Z"/>
    <path class="cls-1" d="M325.702,349.998c-1.762.026-.161,1.015-.317,1.395,1.201-.446,1.483-.561.317-1.395Z"/>
    <path class="cls-1" d="M397.264,346.881l.346,1.638c1.234-.639-.19-.617-.346-1.638Z"/>
    <polygon class="cls-1" points="406.448 333.898 404.92 333.472 405.056 335.096 406.448 333.898"/>
    <polygon class="cls-1" points="419.244 340.365 418.84 340.888 420.531 339.153 419.244 340.365"/>
    <path class="cls-1" d="M434.769,229.638l-.906,1.9c.984.313,2.617-1.338.906-1.9Z"/>
    <path class="cls-1" d="M380.551,225.088c-.443-.396-1.086-.63-1.691-.608-.599.033-1.142.351-1.403.989,1.176-.331,2.592.053,3.094-.381Z"/>
    <polygon class="cls-1" points="298.803 146.914 300.175 146.805 297.91 146.366 298.803 146.914"/>
  </g>
  <g>
    <path class="cls-1" d="M277.623,331.957c-.342-.459-1.309-1.277-1.403-.829.459.558.908,1.126,1.348,1.702l.055-.874Z"/>
    <path class="cls-1" d="M273.048,330.757c.373,1.05.975,2.884,2.377,4.316-.828-1.981-.201-1.375-1.385-3.586.11-.407.941.13,1.424.756-.278-.5.771-.09-.033-1.202-.76-.422-1.229-.568-1.454-.421-.243.127-.244.547-.064,1.284-.394-.292-.638-.817-.865-1.146Z"/>
    <path class="cls-1" d="M246.425,323.276l-.004.321c.045-.144.04-.245.004-.321Z"/>
    <path class="cls-1" d="M227.364,313.319c.167-.125.191-.364.152-.559-.139.207-.243.393-.152.559Z"/>
    <path class="cls-1" d="M222.409,313.683c.121-.013.208-.047.309-.07-.19-.099-.34-.117-.309.07Z"/>
    <path class="cls-1" d="M246.425,323.276l.027-.841c-.461.532-.122.568-.027.841Z"/>
    <path class="cls-1" d="M271.012,337.746c.102-.152.146-.384.154-.668-.076.13-.156.245-.248.342.032.11.059.206.094.327Z"/>
    <path class="cls-1" d="M253.853,326.189l.12.059c.151-.197.324-.442.512-.722l-.632.663Z"/>
    <path class="cls-1" d="M258.837,327.864c-.088-.107-.598,1.652-.856,2.411.268-.708.446-1.032.585-1.14.088-.337.175-.745.271-1.271Z"/>
    <path class="cls-1" d="M267.26,331.149l.088-.289c-.018.088-.066.178-.088.289Z"/>
    <path class="cls-1" d="M250.58,323.679c.147-.229.267-.438.331-.569-.132.189-.239.381-.331.569Z"/>
    <path class="cls-1" d="M80.603,331.942c.106-.082.168-.13.258-.2-.172.079-.284.148-.258.2Z"/>
    <path class="cls-1" d="M83.543,320.264l.141.035c.304-.176.599-.346.89-.514l-1.03.479Z"/>
    <path class="cls-1" d="M215.32,317.545c.022.007.025.004.042.007-.053-.247-.082-.163-.042-.007Z"/>
    <path class="cls-1" d="M172.753,342.442c.91,1.472-.498,2.268.738,3.852-.22-.683.183-2.979-.738-3.852Z"/>
    <path class="cls-1" d="M270.716,337.602c-.105.063-.213.12-.334.134.174.014.276-.038.334-.134Z"/>
    <path class="cls-1" d="M173.492,346.294l.003.016.126.147c-.053-.067-.084-.105-.129-.163Z"/>
    <path class="cls-1" d="M206.74,326.665c.216.242.405.407.59.562-.117-.147-.28-.312-.59-.562Z"/>
    <path class="cls-1" d="M215.663,322.456l-.344-.014c.184.056.281.045.344.014Z"/>
    <path class="cls-1" d="M204.211,331.646c-.188-.046-.365-.232-.378.068.066.069.116.115.17.157-.085-.244-.078-.387.209-.225Z"/>
    <path class="cls-1" d="M199.779,334.439c.095.107.18.179.271.27.03-.052.064-.113.095-.167l-.366-.103Z"/>
    <path class="cls-1" d="M95.163,344.672c.176-.501.428-1.014.695-1.513-.66,1.125-1.71.991-.695,1.513Z"/>
    <path class="cls-1" d="M270.657,336.78c.118.449.135.688.059.822.074-.051.14-.115.202-.182-.073-.264-.158-.507-.261-.64Z"/>
    <path class="cls-1" d="M212.054,343.781l-.963.301c.324,0,.672-.113.963-.301Z"/>
    <path class="cls-1" d="M136.197,357.743l-.236.19c.075.052.156.01.236-.19Z"/>
    <path class="cls-1" d="M208.818,345.869c-.484-.457-.832-.679-1.116-.787.041.144.062.266.149.461l.968.326Z"/>
    <path class="cls-1" d="M95.867,343.142l-.009.017.009-.017Z"/>
    <path class="cls-1" d="M87.901,342.408c.709.719,1.886-1.467,2.941-2.375,1.291.221-.741,1.691-1.224,2.893.999-.025,2.813-1.414,3.168-1.019-.213.336-.219.515-.621.831,1.768-1.067,1.839,1.344,3.951-.146-.069.209-.158.393-.248.55.572-1.064,1.26-2.079,1.782-2.779.36.186,1.471-.857.712.527-.178-.171-.552.343-.927.684l.738-.336c-.944,2.085-.924.333-1.874,1.71,1.142-.131,2.963-1.182,3.143-.303-1.062,1.949-1.666-.193-2.001,1.936l-.388-1.262c-1.277,3.336-.395-.549-1.857,2.958.838,1.31,1.923-.095,2.749,1.205.891-.888.851-1.614,1.735-2.508,2.712-1.027-1.424,5.565,1.272,3.675,1.026-1.122,2.428-3.547,2.609-1.768l-1.429,2.072c1.068.854,2.25-2.877,2.733-.802-.635.793-1.28.332-1.23.681-.045,2.147,1.181-1.024,1.78-.755l-.799,2.071c1.435.248,3.428-.554,4.96-.462-.312.587-.808,1.143-.718,1.898,1.098-.183,2.018.228,2.852.928.834.687,1.585,1.587,2.285,2.495l1.219-1.63c.148.066.047.917-.227,1.221.486.904.375-1.155.91-1.778.418-.014.209,1.211-.194,1.689,1.672-1.165,4.266-2.515,5.046-.194l-.375.493c.821,1.001,1.965-3.543,2.47-1.629l-.243.297c1.943,1.234,4.567.002,5.68,3.078.754-2.668,1.901,1.557,2.63-2.217.907,2.081.463,2.697,1.979,4.199.431.237,1.005-2.285,1.61-2.608l-.253,1.992,1.031-1.986.094,2.437.59-.441c-.194-.147-.33-.955-.224-1.525.925-.782,1.804,1.631,1.706,2.658l2.117-1.469c-.133.798-.486,1.037-.799,1.52,1.258-1.92-.05,2.124,1.103.364-.076-.468.2-1.181.266-1.583.333,1.257,1.409,1.4,2.24.96l-.293,1.362c1.384.491,3.056-.366,4.641-.185-.51-.699-.153-3.075.33-3.259l-.005,2.127c.434-1.284-.434-.831.356-2.387.595.283.215,2.432-.216,3.095l.837-.685c-.006.635-.215.957-.33,1.759.417-1.295,1.206,2.211,1.832-.044l.004.633c1.741.105,2.558-.514,3.961-.629.068-1.833.604-1.424,1.03-2.905.987.585,2.128,2.026,3.361,1.869.838-.913.211-1.55.562-2.643.108,1.665,1.321,1.439.734,2.672,1.456-.355,1.878-.442,3.616-1.905-.25-.67-.491-.952-.418-1.527.305-.294.797.653.816,1.455l-.074.176c.927-1.281,2.183-.244,3.454.718,1.258.953,2.517,1.781,3.095-.041l-.068.181c.487-.657.951-1.383,1.412-2.069.818.149-.264,1.321.476,2.238,1.351-3.07,2.979-.111,4.123-2.219,1.077,2.275,2.115,1.941,3.125,1.383,1.016-.565,2.001-1.331,3.193-.024l-.392-1.093c.1-1.216.655.498,1.025.665-.284-.855-.71-.876-.631-1.557,1.485-1.179,3.313-1.256,5.281-1.125,1.943.076,4.047.419,5.97.272,1.365-.241-1.552-5.857,1.011-3.939l.397,2.17c.736-1.723,1.983-2.213,3.249-2.704,1.24-.531,2.513-1.026,3.173-2.576.088.511.377,1.088.145,1.194,1.205,1.147,1.872-.841,1.267-1.974.419-.069.624.973,1.148,1.422.93.535.252-2.436,1.258-1.218.167.196.111.52.081.676-.053-.84,1.565-.666.37-2.062,1.281.262,1.206-1.608,2.426-1.077-.631-1.992,1.917-.08.534-2.582,1.509,2.535,2.723,1.071,2.466-.413.319.854.961.477,1.444,1.634.577-.423.813-1.229-.15-2.409,1.525,1.077,1.657.098,1.782-.716.129-.819.254-1.482,1.892.12.373-1.271.803-2.357,1.207-3.414.408-1.051.851-1.988,1.337-2.838,1.829,2.303-1.387,1.526.609,3.879.64-2.104-.215-4.646,1.561-5.232.593-.01.662,1.136.865,1.608.505-2.093,2.713-2.15,2.758-4.377.188.199.272.529.311.8.159-.281.828-.187-.131-1.116l.034.465c-1.699-1.066-1.95-3.712-2.669-4.483,2.355,3.078,1.715-.407,4.599,3.579-.037-.326-.314-.953-.987-1.544.392-.033.835.258,1.352,1.19.247-1.315-1.055-2.008-.351-2.705.47.446.514.762.995,1.36-.564-1.238-1.15-2.453-.175-2.687.254.298.697.569.517.745.106-.148.173-.321.213-.513.02-.096.033-.196.04-.299l.008-.158v-.08c.035-.043-.071.064-.112.098l-.005-.015-.011-.031c-.116-.327-.267-.721-.364-1.106-.205-.758-.156-1.524.54-1.335,1.331,2.662.719.61,1.949,2.843-.053-.287-.086-.579-.108-.886-.206-.355-.422-.702-.646-1.042.146-.098.098-.625.123-1.082.022-.448.117-.823.407-.491.014.41.037.804.083,1.203.135-.285.297-.561.482-.833-.2-.274-.425-.547-.657-.791.072-1.571-.972-3.279-.068-2.882-.111.329.619-.207,1.094,1.366,0,0-.002,0,0,.008.129-.925.406-1.911.87-1.213.115.892-.005,3.065.071,3.657.061-1.154.336-1.313.613-1.426.283-.12.562-.218.895-1.341-.188.514-.375,1.926-.391,2.224.137-.585.288-1.164.453-1.737.123.679.08.964-.156,2.048.212.288.361-.543.481-1.247.11-.704.229-1.263.433-.339-.094.105-.136.376-.314.573.248.563.613.495,1.026.49.401-.013.844.039.942.625-1.106,2.241-.755.178-1.574,2.156.19.006.456-.093.782-.2l.521-.17.281-.08c.105-.017.243-.006.361-.008.979.008,1.886.126,2.277.819l-.043-.383c2.341-2.551-.221,2.022,1.393,1.237-.306.082-1.401,1.334-1.119,1.067.447,1.079,2.177.683,4.097.808l-.705.577c-.007,1.009,1.018,1.371,1.319,2.107.697-.586.924-.242,1.504-1.417-.67,2.651.603,2.729,1.86,2.625,1.274-.088,2.498-.367,2.27,1.938-.207-.108-.885.386-.722.482.635.048,1.249.101,1.876.126.603-1.385.237-.902.516-2.096.61-.672,1.324-1.081,1.657-.907-1.082.559-1.135,2.136-1.217,3.041.163-.436.492-.838.681-1.268-.443,2.786,1.474-2.644,1.679-.546l-.387.691c.557-.176,1.326-.983,1.647-.614-.486,1.683-.728.581-1.328,1.883.717.181,2.402-2.566,2.349-.768-.419.371-.802.252-1.236.587-.111,2.165.186,1.689.563,2.169l-.034-.06c.283.422.578.854.896,1.253l-.146-.617c1.086-2.054,1.512-2.153,1.961-2.042.437.093.914.374,1.709-.976-1.574,2.546-.491,1.561-.933,3.484.192.609.578,1.288.347,1.813.831-1.493.856,1.415,1.982-.814-.027.633.63.116.36,1.695.847-.431-.105-1.118.043-1.906.673-1.021,1.269-.328,2.043.23.743.59,1.708.97,2.436-.57,1.351-1.38,1.231-3.56,2.074-4.824.302.445.377,1.028.35,1.498-.024.466-.144.822-.144.822.882.781,1.413.406,1.806-.457.049.561.323.981.765,1.57.499-.369-.459-2.301.547-1.689.162.696.44,1.807.414,2.578.486-.796.62-2.175.942-2.993.688.892.401,1.681.459,2.458.28-.423.666-.881.865-1.472.196-.602.213-1.284-.175-2.075l-.732-.275c.173-.212.924,1.197.902,1.589.1,1.577-1.171-.043-1.477-.592l.216-.567c-1.13-1.513-1.376-1.224-1.555-.474-.163.751-.334,1.883-.812,1.964-.184-.897-.387-1.788-.61-2.671.019.792.003,1.624-.066,2.414-.411-.615-.946-2.036-.711-2.526-.907-1.132-.205,1.062-1.051-.246-.106-.211-.116-.344-.1-.461-.09.314-.198.605-.313.903-.026-.575-.498-1.852-.121-1.527-.596-.68-.796-.119-1.011.382-.211.475-.404.887-.69-.112l.052-.174c-.541.531-.548,1.03-.48,1.7.058.673.214,1.517-.278,2.712-.354-1.621-.648-3.245-.883-4.87l-.083,1.996c-.138-.071-.406-.228-.353-1.022-.505,1.352.086.867-.225,2.147-.331-.915-.782-.697-1.188-.702-.401.008-.73-.148-.622-1.729-.409,1.484.512,1.214-.321,2.2.089-1.703-.11-1.591-.413-1.254-.297.335-.717.892-.88.071.499-1.698.843-.712.564-2.338-.417,1.444-.681,1.212-.868.702-.192-.517-.298-1.307-.582-1.1-.609,2.281-1.254.703-2.259,1.166.281-.732-.953-1.726-1.244-2.844l.189-.35c-1.148,2.114-1.684,1.35-2.432,1.504.697-1.253,1.055-1.702,1.612-2.134l-.459-.228c-.472.621-.813.898-1.252.957l.992-1.492c-.623-.236-2.304,1.098-2.454-.418-.974,1.358-1.834,4.352-3.362,4.682.459-.778,1.278-2.087,1.708-2.244-.137.048-.68.448-.621.025l1.182-1.037c0-.801-.89.931-1.114.613.722-1.065.293-.908.907-1.725.142-.055-.042.609.348.263-.201-.407-.159-1.302.274-2.192-.39.62-.987,1.424-1.32,1.394-.665-.353.686-1.407.727-2.191-.667.619-.498-.407-1.65,1.134-.172-.139.331-.883.576-1.351-.816.456-1.588-.904-2.49.984v.169c-.041.02-.06.008-.104.027l.003.002-.003-.002c-2.224.695-1.471-2.55-3.01-2.745l.408-.497c-1.079.069-1.648-.785-2.967-.072-.182-.151.307-1.267.868-1.797-.786-.014-1.292.508-1.326-.882,1.188-.485.452-.913,1.014-.24-.194-.874-.008-2.028-1.893-1.274.603-.572.726-1.138.573-1.572-.156-.425-.568-.703-.913-.651.046.52.075,1.028.087,1.525-.601-.142-.94-.574-1.315-1.02.377-.616.766-1.223,1.166-1.824-.542-1.996-2.111-1.528-3.224-1.032-1.18.481-1.956.889-2.676-1.49-.382.707-.067,1.022.212,1.394.288.367.536.792.177,1.608-.442-.279-.864-1.231-1.299-2.093-.427-.866-.846-1.622-1.032-1.644-.84-.598-1.203.243-1.471,1.131-.286.886-.486,1.819-1.266,1.615.349.705.773,2.693.124,3.73-.774.042-1.92-2.654-1.486-3.556.22-.156.396.039.45.299.23-.405.606-.875.008-1.558l.045.809c-.693-.621-2.078.159-2.167-1.216-.547,1.126.123,1.379.779,1.48-.806-.217-1.322.07-1.785.418-.467.359-.888.764-1.679.919.414.217,1.025.896.844,1.03-2.125.558.087,1.868-.629,3.027-1.266-.384-1.581-2.429-1.942-.613-1.162.079-1.563-1.341-1.674-2.135-.022.56-.179.917-.433,1.16-.064.06-.134.113-.209.16l-.116.066c-.012.007-.015.005-.035.02l-.163.172-.011.002-.044.006c-.119.014-.256.009-.401-.008-.58-.067-1.287-.32-1.545-.247l-.169-.726c.101.431-.051.574-.199.723l1.305.874c-.373,0-.524.149-.991-.292.56.881,2.025,1.604,2.67,2.936-.81-.289-.126,1.357-1.686.02,1.246-.301-1.566-1.346-1.188-2.224.06.293-.093.439-.462.433-.191-.132-.282-.32-.32-.451-2.002-.554,1.352,1.947.583,2.691-.728-.913-1.719-1.374-1.66-1.077.3-.29,1.511,1.223,1.845,2.132-1.135-.174-.083.991-.424,1.165l.599.02c.701.927.336,1.06.225,1.662-.65-.625-.1-.755-.502-.922.991,1.855-2.336-.701-1.948.811-.78-.345-1.486-1.586-2.059-1.777.394,1.675-1.677-.568-1.524.896,1.206,1.02.999.698,1.509,2.242.133-.588.278-1.153.375-1.762.281.778.544,1.548.791,2.313.368-.258.055-1.351.424-1.33.517,1.252.289.936,1.304,1.753-1.975-1.321-.037,1.822-1.614,1.094l-2.476-2.949c-1.88-.672-.147,2.683-1.804,2.798l.75.249c.803,1.309-.504.718-.49,1.455-.752-1.044-1.259-1.253-1.892-1.782.594.748-.836.502.594,2.639l-1.493-1.007c-1.272.071,1.128,3.717-.005,4.004-.536-1.34-1.44-1.808-1.447-3.043-.288.195-.673.186-.173.923-.621-.555.153,1.964-.804,1.128.188.551.891,1.701.492,1.831-.18-.194-.348-.533-.348-.533.35.532-.059,1.069,1.017,2.069-1.569-1.376-2.166-.904-2.727-.369-.547.547-1.098,1.089-2.386-.16-.453.752-1.066,1.576-1.638,2.009-.147-.359-.308-.562-.128-.511-1.416-.573,1.248,3.542-.38,2.923-1.481-1.574,0-1.272-.688-1.803-2.106-3.658-.93,1.108-2.722-.757l.046-.301c-1.139-1.042-.509,2.041-1.482,2.186,0,0-.12-.358-.269-.58.372,2.252-.465,3.392-1.074,4.294-.402-1.629.027-.964-.808-2.438-.276.377,1.202,2.426.629,3.182-.608-.727-1.459-1.225-2.221-2.853l.653-.384c-1.263-1.988-.857.452-1.381.237l-.34-.959c-.915.745.02,3.16-1.236,3.407l.396.674c.241,2.609-1.045-1.138-1.037.863l-1.077-2.346c-.201.732-.649,2.879-1.281,3.622-.162-1.969.402-3.211.557-4.472-.418.131-1.331.683-1.145,1.966.09-.297.096-.969.39-.654.15,2.098-.234,3.305-1.126,3.506-1.348-4.802-2.623-.53-4.296-4.071-.475,1.123-1.273,1.127-2.137.917-.864-.196-1.785-.578-2.607-.229,1.459,3.639-.479.228.476,4.095-.364.348-.538.323-.628.08-.585-.678-1.167-1.398-1.733-2.098-.515-1.087.22-.931.007-1.801-.938-.145-.694-1.593-1.459-2.532.382,1.38.072,2.06-.521,1.613l1.033,1.683c-.88,2.31-1.639-3.106-2.515-.814l.188-1.308c-.511.878-2.288.32-2.524,3.562-.173-.443-.455-1.507-.21-1.826-.789-.149-1.535.798-2.292,1.56-.75.779-1.516,1.252-2.188.32l.049-.978c-.264.297-.383,1.855-.807.899-.005-.403.057-.977-.079-1.027-.127.344-.673,1.751-1.087,1.206l.274-1.115c-1.532-1.159-2.207,2.772-3.533,3.433-.023-2.869-1.196-3.801-1.765-4.265l.027-.406c-.427-.09-.824.023-1.21.237-.385.199-.759.519-1.136.886-.755.733-1.529,1.652-2.398,2.163-.71-3.125-3.456-1.598-5.019-3.503.212.543-.269,2.22-.608,2.476-.347-.619-1.335,1.868-.994-.745l.138.067c-.034-2.601-.925-2.012-1.56-2.155l-.489,3.408c-.57-2.583-1.718-2.251-2.796-1.845-1.062.388-2.054.848-2.207-1.435-.517.799-1.013.721-1.535,1.519l.282-1.824c-1.049-.608-1.544-.933-2.955-.719l.482-1.257c-.724-.242-1.818,5.093-2.561,5.08l.256-2.749c-1.374-.157-2.173-2.839-3.967-.635.104-.391.305-1.162.537-1.229-.61-.186-1.93-2.298-2.547,1.421.534-2.403-1.248-.558-2.227.319l.552-1.734c-1.152,2.105-1.338,2.713-2.343,3.127-.138-.278.206-1.446.346-.933-.407-1.075-.964,1.522-1.496.357l.607-1.028c-.618-.334-.735.281-1.487,1.465-.635.569-1.148-.826-.741-2.418-.388.928-1.167,2.092-1.417,1.522.142-.605.405-.928.534-1.085-.687-1.511-2.304,1.414-2.455-.529.193-.57.25-.87.253-1.062.825.35,1.47.697,1.364.799.538-1.586-.012-2.104,1.264-4.095-.908,1.007-2.783,3.239-3.167,2.259.027-.163.054-.322.124-.572l.135-.15c-.089-.21-.278-.114-.508.102-.105-.332-.161-.567-.346-.665.45-1.315-.429-1.013-.715-1.216-.697,1.695-1.007,1.233-1.21,2.798,0-.143.148-.172.395-.144.07-.028.139-.027.213-.112-.025.041-.055.09-.085.138.237.044.525.143.861.245-.613.763-1.19,1.347-1.162.249-.629,1.008-1.303,2.032-1.64,2.503.54-2.558.266-4.194.824-5.669-1.443.535-2.469-.507-4.751,2.195-.497.234.154-1.038.317-1.565.327-.216.488-.069.81-.457-.964.47-1.781-.541-3.129,1.407-.109-1.366,1.514-1.653.405-1.908l.506-.547c.149-2.197-1.332-1.328-2.897-.675-1.53.665-3.076.997-2.501-1.658-.059.337-.08.498-.302.835-.196-.858-.671-1.349-1.203-1.794-.53-.444-1.186-.757-1.822-1.105-.626-.358-1.273-.707-1.657-1.311-.382-.604-.574-1.382-.382-2.451.011-1.018-1.187-.052-2.395.357l1.38-1.405c-.754.301-1.515.593-2.258.852-.999.065-.381-1.109.1-2.158.475-1.057.818-1.981-.885-1.612l-.952.935c-.06-.283-.474-.498-.714-.747-.219-.266-.263-.56.385-.959-.227.095-1.225.642-.772.075l.838-.599-2.174-.099c.07-1.251,3.494-2.127,2.892-3.408-.612-.208-3.378.319-3.86.838.078.211-.235.808-1.104,1.366l-.741-.152c-2.637,1.509-5.559,2.711-6.584,5.018l2.107-.167-1.064,1.061-.535-.648c-.909,1.139.294.74,1.178.557-.612.493-.994.91-1.127,1.237.987-.257,1.968-.525,2.941-.803-.918.768-2.193.954-2.372,1.874,1.36-.381,1.963-1.858,3.098-1.742-.883,1.167-1.873,1.704-.608,1.486-.596.515-1.066.706-1.47.717,1.02-.116,1.1.847,2.554.096-1.066,1.406,1.365,1.045-.941,2.757.645-.289,2.319-.688,2.685-.411-3.192,1.496.888,1.472-2.074,3.663,2.79-1.52,2.604.828,4.621.49-.22.122-.667.372-.618.192.235.636-.317,1.413-.457,2.123,1.901-1.712,2.952-1.393,4.446-2.192-1.172,2.271-2.439,1.823-3.937,3.661,1.435-1.49,2.446-.546,3.443-1.972-.623,1.5-.144.875-1.363,2.63,2.249-2.269.781-.015,2.457-1.136-.426,1.746-1.824,2.386-.481,2.298-.299,1.052-1.683,1.32-1.683,1.32ZM109.798,349.116c-.006.016-.011.028-.013.034-.186-.023-.344-.042-.445-.054.094.008.225.017.458.02ZM111.466,349.702c-.178-.142-.424-.246-.694-.333.162-.616.45-1.202.601-1.111-.235.363.025.849.093,1.444ZM112.853,336.652c.306-.146.238.218.125.579-.111-.015-.25-.01-.451.037-.031.055-.077.136-.111.196.155-.314.305-.606.437-.811Z"/>
    <path class="cls-1" d="M111.539,338.694c-.047.022-.095.086-.142.083-.019.167-.031.314-.031.437.103-.168.206-.338.301-.494-.043-.009-.088-.018-.128-.026Z"/>
    <path class="cls-1" d="M246.423,323.65v-.053c-.023.074-.047.147-.104.249.036-.084.071-.129.104-.196Z"/>
    <polygon class="cls-1" points="134.188 358.382 134.247 357.923 134.044 358.305 134.188 358.382"/>
    <path class="cls-1" d="M250.722,333.955c-.056.152-.099.318-.095.478.049-.109.074-.285.095-.478Z"/>
    <path class="cls-1" d="M254.689,336.09l.423.831c-.163-.445-.301-.679-.423-.831Z"/>
    <path class="cls-1" d="M257.921,337.889c.107-.306.166-.54.22-.757-.002-.005-.004-.005-.004-.014l-.216.771Z"/>
    <path class="cls-1" d="M224.317,331.143c-.025.037-.041.083-.035.146.03.458.08.219.035-.146Z"/>
    <path class="cls-1" d="M230.467,319.921c-.063.398-.107.799-.169,1.056.186.111.305.118.169-1.056Z"/>
    <path class="cls-1" d="M212.161,343.749c-.007-.013-.007-.012-.016-.028-.028.026-.059.038-.091.059l.107-.031Z"/>
    <path class="cls-1" d="M229.88,321.092c.244.342.335.201.417-.115-.154-.107-.352-.238-.417.115Z"/>
    <path class="cls-1" d="M274.493,336.276l.218-.046c-.067-.101-.108-.192-.134-.264l-.084.31Z"/>
    <path class="cls-1" d="M274.577,335.966l.078-.306c-.088.056-.157.116-.078.306Z"/>
    <path class="cls-1" d="M274.8,335.019l-.145.641c.141-.085.348-.15.145-.641Z"/>
    <path class="cls-1" d="M269.145,337.625l.114.659c-.003-.143-.039-.356-.114-.659Z"/>
    <path class="cls-1" d="M267.65,338.165c.384.067,1.245,1.216,1.694.644l-.086-.525c-.03,1.056-1.508-1.281-1.608-.119Z"/>
    <path class="cls-1" d="M261.87,330.329c.277.211.561.389.853.57-.143-.71-.285-1.664.082-1.828-.929-2.136.172,1.611-.936,1.258Z"/>
    <path class="cls-1" d="M259.398,328.941c.502-.23.202-1.008.315-1.393-.393.578-.511.718-.315,1.393Z"/>
    <path class="cls-1" d="M241.844,318.085l1.093-1.26c-.489-.086-.409.5-1.093,1.26Z"/>
    <path class="cls-1" d="M234.006,322.879c-.075.377-.16.746-.257,1.108.244-.455.496-.905.756-1.348-.173.074-.339.154-.499.241Z"/>
    <path class="cls-1" d="M234.935,309.845l.327-.146c-.4.078-.792.174-1.176.282.28-.053.564-.101.849-.137Z"/>
    <path class="cls-1" d="M199.756,332.592l1.163,1.699c.045-.449-1.106-2.447-1.163-1.699Z"/>
    <path class="cls-1" d="M186.733,341.233c-.529-.9-1.166-1.372-1.068-.335.377.014.992.643,1.068.335Z"/>
    <polygon class="cls-1" points="140.576 342.585 140.974 341.938 140.305 342.439 140.576 342.585"/>
  </g>
</svg>