<?xml version="1.0" encoding="UTF-8"?> <svg xmlns="http://www.w3.org/2000/svg" xmlns:xlink="http://www.w3.org/1999/xlink" version="1.1" id="Capa_1" x="0px" y="0px" viewBox="0 0 1204.6 235.2" style="enable-background:new 0 0 1204.6 235.2;" xml:space="preserve"> <g> <g> <path d="M162.5,132.1l-0.6,1.7c-9,26.5-31.9,42.9-59.6,42.9c-16.6,0-32.3-6.9-44.1-19.2c-11.9-12.5-18.5-28.7-18.5-45.8 C39.7,94,46,78,58.2,65.3C70,52.9,85.7,46.1,102.3,46.1c27.8,0,49,14.8,58.1,40.6l0.6,1.6h31.7l-0.8-3 c-5.4-21.2-16.6-39-32.4-51.6s-35.6-19.1-57.1-19.1C77.7,14.5,53.5,25,36,43.1l0,0c-17.8,18.6-27.5,43-27.5,68.5 c0,25.1,9.7,49.4,27.4,68.2c17.5,18.4,41.2,28.5,66.4,28.5c44,0,79.6-28.7,90.7-73.1l0.8-3C193.8,132.1,162.5,132.1,162.5,132.1z"></path> <polygon points="252.5,179.4 252.5,128.6 337.1,128.6 337.1,99.3 252.5,99.3 252.5,48.8 339,48.8 339,19.8 223.2,19.8 223.2,208.4 339.3,208.4 339.3,179.4 "></polygon> <rect id="XMLID_00000055666361259744740400000004752457651635556018_" x="373.1" y="19.2" width="29.2" height="189.2"></rect> <g id="XMLID_00000151539692444284928800000000843877035786522752_"> <path id="XMLID_00000179607048153304752730000010749558794585682572_" d="M469.8,190.8c0.3,9.8-6.9,17.6-18.2,17.6 c-10.1,0-17.3-7.8-17.3-17.6c0-10.1,7.5-17.9,17.9-17.9C463,172.9,469.8,180.8,469.8,190.8z"></path> </g> </g> <g> <g> <path d="M604.7,63.4c-3.3,0-6.4-0.5-9.2-1.6c-2.8-1.1-5.3-2.7-7.4-4.7c-2.1-2-3.7-4.4-4.9-7.1c-1.2-2.7-1.7-5.7-1.7-8.9 c0-3.2,0.6-6.2,1.7-8.9s2.8-5.1,4.9-7.1s4.6-3.6,7.4-4.7c2.8-1.1,5.9-1.6,9.3-1.6c3.6,0,6.8,0.6,9.8,1.8c2.9,1.2,5.4,3,7.5,5.4 l-5.2,4.9c-1.6-1.7-3.3-3-5.3-3.8c-1.9-0.9-4.1-1.3-6.3-1.3c-2.3,0-4.4,0.4-6.2,1.1c-1.9,0.7-3.5,1.8-4.9,3.2s-2.5,3-3.2,4.8 c-0.8,1.9-1.1,3.9-1.1,6.2c0,2.2,0.4,4.3,1.1,6.2c0.8,1.9,1.8,3.5,3.2,4.8c1.4,1.4,3,2.4,4.9,3.2c1.9,0.7,4,1.1,6.2,1.1 c2.3,0,4.4-0.4,6.3-1.3c1.9-0.9,3.7-2.1,5.3-3.9l5.2,5c-2,2.4-4.5,4.2-7.5,5.4C611.6,62.8,608.3,63.4,604.7,63.4z"></path> <path d="M656.8,37.3c-1.4-2.6-3.4-4.6-6-6c-2.5-1.4-5.4-2.1-8.6-2.1c-3.3,0-6.3,0.7-8.9,2.2c-2.6,1.4-4.6,3.4-6.1,6 c-1.5,2.5-2.2,5.5-2.2,8.8c0,3.3,0.8,6.2,2.3,8.8c1.5,2.6,3.6,4.6,6.4,6.1c2.8,1.5,6,2.2,9.7,2.2c2.9,0,5.5-0.5,7.7-1.4 c2.3-0.9,4.1-2.3,5.6-4l-4.2-4.8c-1.2,1.2-2.5,2.2-4,2.7c-1.5,0.6-3.2,0.9-5,0.9c-2.2,0-4.1-0.4-5.7-1.2c-1.7-0.8-2.9-2-3.9-3.5 c-0.6-1-0.9-2-1.2-3.2h26c0-0.4,0.1-0.8,0.1-1.2c0-0.4,0-0.8,0-1.1C659,42.9,658.2,39.9,656.8,37.3z M633.8,40.1 c0.8-1.5,1.9-2.6,3.4-3.4c1.4-0.8,3.1-1.2,5-1.2c1.9,0,3.5,0.4,4.9,1.2c1.4,0.8,2.6,2,3.4,3.4c0.6,1,0.9,2.2,1.1,3.4h-18.8 C632.9,42.3,633.3,41.1,633.8,40.1z"></path> <path d="M697.3,35.5c-1.2-2.1-2.8-3.7-4.9-4.8c-2.1-1-4.5-1.6-7.1-1.6c-2.9,0-5.5,0.6-7.7,1.7c-1.5,0.8-2.7,1.8-3.8,3v-4.3h-7.4 v33.2h7.8V46c0-2.2,0.4-4.1,1.1-5.6c0.8-1.5,1.8-2.6,3.3-3.3c1.4-0.7,3-1.1,4.8-1.1c2.5,0,4.4,0.7,5.8,2.2 c1.4,1.4,2.1,3.6,2.1,6.6v18h7.8v-19C699.1,40.4,698.5,37.7,697.3,35.5z"></path> <path d="M726.7,55.4c-1.2,0.9-2.6,1.4-4.3,1.4c-1.4,0-2.6-0.4-3.4-1.3c-0.8-0.9-1.2-2.1-1.2-3.7V36.1h8.9v-6.2h-8.9v-7.6H710v7.6 h-5.5v6.2h5.5v16c0,3.7,1,6.5,3,8.4c2,1.9,4.8,2.8,8.4,2.8c1.4,0,2.8-0.2,4.1-0.6c1.3-0.4,2.4-0.9,3.4-1.7L726.7,55.4z"></path> <path d="M746.5,31c-1.6,0.9-2.9,2-3.8,3.5v-4.9h-7.4v33.2h7.8V46.7c0-3.4,0.9-5.9,2.6-7.7c1.7-1.7,4.1-2.6,7-2.6 c0.3,0,0.6,0,0.9,0c0.3,0,0.6,0.1,0.9,0.2v-7.4C751.3,29.2,748.7,29.8,746.5,31z"></path> <path d="M775.7,63.2c-3.4,0-6.4-0.7-9.1-2.2c-2.7-1.5-4.7-3.5-6.3-6.1s-2.3-5.5-2.3-8.8c0-3.3,0.8-6.2,2.3-8.8 c1.5-2.5,3.6-4.5,6.3-6c2.7-1.4,5.7-2.2,9.1-2.2c3.4,0,6.5,0.7,9.2,2.2c2.7,1.4,4.8,3.4,6.3,6c1.5,2.5,2.3,5.5,2.3,8.8 c0,3.3-0.8,6.2-2.3,8.8c-1.5,2.6-3.6,4.6-6.3,6.1C782.2,62.5,779.1,63.2,775.7,63.2z M775.7,56.6c1.9,0,3.6-0.4,5.1-1.2 c1.5-0.8,2.7-2,3.5-3.6c0.9-1.6,1.3-3.4,1.3-5.5c0-2.2-0.4-4-1.3-5.6c-0.9-1.6-2-2.7-3.5-3.6c-1.5-0.8-3.2-1.2-5-1.2 c-1.9,0-3.6,0.4-5.1,1.2s-2.6,2-3.5,3.6c-0.9,1.6-1.3,3.4-1.3,5.6c0,2.1,0.4,4,1.3,5.5c0.9,1.6,2,2.8,3.5,3.6 C772.2,56.1,773.8,56.6,775.7,56.6z"></path> <path d="M842.7,16.7v17c-0.9-1.1-2-1.9-3.2-2.6c-2.2-1.2-4.7-1.8-7.5-1.8c-3.2,0-6.1,0.7-8.6,2.1c-2.5,1.4-4.5,3.4-6,5.9 c-1.4,2.5-2.2,5.5-2.2,8.9c0,3.4,0.7,6.4,2.2,8.9c1.4,2.5,3.4,4.5,6,5.9c2.5,1.4,5.4,2.1,8.6,2.1c2.9,0,5.4-0.6,7.6-1.9 c1.3-0.7,2.4-1.7,3.4-2.9v4.3h7.4V16.7H842.7z M841.5,51.7c-0.9,1.6-2.1,2.8-3.5,3.6c-1.5,0.8-3.1,1.2-5,1.2s-3.5-0.4-5-1.2 c-1.5-0.8-2.7-2-3.5-3.6c-0.9-1.6-1.3-3.4-1.3-5.5c0-2.2,0.4-4,1.3-5.6c0.9-1.6,2.1-2.7,3.5-3.6c1.5-0.8,3.1-1.2,5-1.2 c1.9,0,3.5,0.4,5,1.2s2.7,2,3.5,3.6s1.3,3.4,1.3,5.6C842.9,48.3,842.4,50.2,841.5,51.7z"></path> <path d="M889.7,37.3c-1.4-2.6-3.4-4.6-6-6c-2.5-1.4-5.4-2.1-8.6-2.1c-3.3,0-6.3,0.7-8.9,2.2s-4.6,3.4-6.1,6 c-1.5,2.5-2.2,5.5-2.2,8.8c0,3.3,0.8,6.2,2.3,8.8c1.5,2.6,3.6,4.6,6.4,6.1c2.8,1.5,6,2.2,9.7,2.2c2.9,0,5.5-0.5,7.7-1.4 c2.3-0.9,4.1-2.3,5.6-4l-4.2-4.8c-1.2,1.2-2.5,2.2-4,2.7c-1.5,0.6-3.2,0.9-5,0.9c-2.2,0-4.1-0.4-5.7-1.2c-1.7-0.8-2.9-2-3.9-3.5 c-0.6-1-0.9-2-1.2-3.2h26c0-0.4,0.1-0.8,0.1-1.2c0-0.4,0-0.8,0-1.1C891.9,42.9,891.1,39.9,889.7,37.3z M866.7,40.1 c0.8-1.5,1.9-2.6,3.4-3.4c1.4-0.8,3.1-1.2,5-1.2c1.9,0,3.5,0.4,4.9,1.2c1.4,0.8,2.6,2,3.4,3.4c0.6,1,0.9,2.2,1.1,3.4h-18.8 C865.8,42.3,866.2,41.1,866.7,40.1z"></path> <polygon points="925.3,56 925.3,44 946.3,44 946.3,37.4 925.3,37.4 925.3,26.1 949,26.1 949,19.3 917.2,19.3 917.2,62.8 949.8,62.8 949.8,56 "></polygon> <path d="M968,63.2c-2.8,0-5.4-0.4-8-1.1c-2.5-0.7-4.6-1.6-6.1-2.6l3-5.9c1.5,0.9,3.3,1.7,5.3,2.4c2.1,0.6,4.1,0.9,6.2,0.9 c2.4,0,4.2-0.3,5.3-1c1.1-0.7,1.6-1.6,1.6-2.7c0-0.9-0.4-1.6-1.1-2.1s-1.7-0.8-2.9-1.1c-1.2-0.2-2.5-0.5-4-0.7 c-1.5-0.2-2.9-0.5-4.4-0.8s-2.8-0.9-4-1.6c-1.2-0.7-2.2-1.6-2.9-2.8c-0.7-1.2-1.1-2.7-1.1-4.6c0-2.1,0.6-3.9,1.8-5.5 c1.2-1.6,2.9-2.8,5.1-3.6c2.2-0.9,4.8-1.3,7.7-1.3c2.2,0,4.5,0.2,6.8,0.7c2.3,0.5,4.2,1.2,5.7,2.1l-3,5.9c-1.6-0.9-3.2-1.6-4.8-2 c-1.6-0.4-3.2-0.5-4.8-0.5c-2.4,0-4.1,0.4-5.2,1.1c-1.1,0.7-1.7,1.6-1.7,2.7c0,1,0.4,1.7,1.1,2.2c0.7,0.5,1.7,0.9,2.9,1.2 s2.5,0.5,4,0.7c1.5,0.2,2.9,0.5,4.4,0.8c1.4,0.4,2.8,0.9,4,1.5c1.2,0.6,2.2,1.5,3,2.7c0.7,1.2,1.1,2.7,1.1,4.5 c0,2.1-0.6,3.9-1.8,5.4c-1.2,1.5-3,2.7-5.2,3.6C973.8,62.8,971.1,63.2,968,63.2z"></path> <path d="M1007.5,55.4c-1.2,0.9-2.6,1.4-4.3,1.4c-1.4,0-2.6-0.4-3.4-1.3c-0.8-0.9-1.2-2.1-1.2-3.7V36.1h8.9v-6.2h-8.9v-7.6h-7.8 v7.6h-5.5v6.2h5.5v16c0,3.7,1,6.5,3,8.4c2,1.9,4.8,2.8,8.4,2.8c1.4,0,2.8-0.2,4.1-0.6c1.3-0.4,2.4-0.9,3.4-1.7L1007.5,55.4z"></path> <path d="M1040.5,29.6v16.8c0,2.2-0.4,4-1.1,5.5c-0.8,1.5-1.8,2.6-3.2,3.4c-1.3,0.7-2.9,1.1-4.8,1.1c-2.5,0-4.4-0.7-5.7-2.2 c-1.3-1.5-2-3.7-2-6.7V29.6h-7.8v18.9c0,3.3,0.6,6.1,1.8,8.2c1.2,2.2,2.9,3.8,5,4.8c2.2,1.1,4.6,1.6,7.5,1.6 c2.6,0,4.9-0.6,7.1-1.7c1.4-0.8,2.6-1.7,3.6-2.9v4.2h7.4V29.6H1040.5z"></path> <path d="M1083.1,16.7v17c-0.9-1.1-2-1.9-3.2-2.6c-2.2-1.2-4.7-1.8-7.5-1.8c-3.2,0-6.1,0.7-8.6,2.1c-2.5,1.4-4.5,3.4-6,5.9 c-1.4,2.5-2.2,5.5-2.2,8.9c0,3.4,0.7,6.4,2.2,8.9c1.4,2.5,3.4,4.5,6,5.9c2.5,1.4,5.4,2.1,8.6,2.1c2.9,0,5.4-0.6,7.6-1.9 c1.3-0.7,2.4-1.7,3.4-2.9v4.3h7.4V16.7H1083.1z M1081.9,51.7c-0.9,1.6-2.1,2.8-3.5,3.6c-1.5,0.8-3.1,1.2-5,1.2 c-1.9,0-3.5-0.4-5-1.2c-1.5-0.8-2.7-2-3.5-3.6c-0.9-1.6-1.3-3.4-1.3-5.5c0-2.2,0.4-4,1.3-5.6c0.9-1.6,2.1-2.7,3.5-3.6 c1.5-0.8,3.1-1.2,5-1.2c1.9,0,3.5,0.4,5,1.2s2.7,2,3.5,3.6s1.3,3.4,1.3,5.6C1083.3,48.3,1082.8,50.2,1081.9,51.7z"></path> <path d="M1105,24.1c-1.4,0-2.6-0.5-3.6-1.4c-0.9-0.9-1.4-2-1.4-3.3c0-1.3,0.5-2.4,1.4-3.3c0.9-0.9,2.1-1.3,3.6-1.3 c1.4,0,2.6,0.4,3.6,1.3s1.4,1.9,1.4,3.2c0,1.4-0.5,2.5-1.4,3.4C1107.7,23.7,1106.5,24.1,1105,24.1z M1101.1,62.8V29.6h7.8v33.2 C1108.9,62.8,1101.1,62.8,1101.1,62.8z"></path> <path d="M1134,63.2c-3.4,0-6.4-0.7-9.1-2.2c-2.7-1.5-4.7-3.5-6.3-6.1c-1.5-2.6-2.3-5.5-2.3-8.8c0-3.3,0.8-6.2,2.3-8.8 c1.5-2.5,3.6-4.5,6.3-6c2.7-1.4,5.7-2.2,9.1-2.2c3.4,0,6.5,0.7,9.2,2.2c2.7,1.4,4.8,3.4,6.3,6c1.5,2.5,2.3,5.5,2.3,8.8 c0,3.3-0.8,6.2-2.3,8.8c-1.5,2.6-3.6,4.6-6.3,6.1C1140.4,62.5,1137.4,63.2,1134,63.2z M1134,56.6c1.9,0,3.6-0.4,5.1-1.2 c1.5-0.8,2.7-2,3.5-3.6c0.9-1.6,1.3-3.4,1.3-5.5c0-2.2-0.4-4-1.3-5.6c-0.9-1.6-2-2.7-3.5-3.6c-1.5-0.8-3.2-1.2-5-1.2 c-1.9,0-3.6,0.4-5.1,1.2s-2.6,2-3.5,3.6s-1.3,3.4-1.3,5.6c0,2.1,0.4,4,1.3,5.5c0.9,1.6,2,2.8,3.5,3.6 C1130.4,56.1,1132.1,56.6,1134,56.6z"></path> <path d="M1169.4,63.2c-2.8,0-5.4-0.4-8-1.1c-2.5-0.7-4.6-1.6-6.1-2.6l3-5.9c1.5,0.9,3.3,1.7,5.3,2.4c2.1,0.6,4.1,0.9,6.2,0.9 c2.4,0,4.2-0.3,5.3-1c1.1-0.7,1.6-1.6,1.6-2.7c0-0.9-0.4-1.6-1.1-2.1s-1.7-0.8-2.9-1.1s-2.5-0.5-4-0.7c-1.5-0.2-2.9-0.5-4.4-0.8 c-1.5-0.4-2.8-0.9-4-1.6c-1.2-0.7-2.2-1.6-2.9-2.8c-0.7-1.2-1.1-2.7-1.1-4.6c0-2.1,0.6-3.9,1.8-5.5c1.2-1.6,2.9-2.8,5.1-3.6 c2.2-0.9,4.8-1.3,7.7-1.3c2.2,0,4.5,0.2,6.8,0.7s4.2,1.2,5.7,2.1l-3,5.9c-1.6-0.9-3.2-1.6-4.8-2c-1.6-0.4-3.2-0.5-4.8-0.5 c-2.4,0-4.1,0.4-5.2,1.1c-1.1,0.7-1.7,1.6-1.7,2.7c0,1,0.4,1.7,1.1,2.2c0.7,0.5,1.7,0.9,2.9,1.2c1.2,0.3,2.5,0.5,4,0.7 c1.5,0.2,2.9,0.5,4.4,0.8c1.4,0.4,2.8,0.9,4,1.5c1.2,0.6,2.2,1.5,3,2.7c0.7,1.2,1.1,2.7,1.1,4.5c0,2.1-0.6,3.9-1.8,5.4 c-1.2,1.5-3,2.7-5.2,3.6C1175.1,62.8,1172.5,63.2,1169.4,63.2z"></path> <g> <path d="M612.1,89.3v17c-0.9-1.1-2-1.9-3.2-2.6c-2.2-1.2-4.7-1.8-7.5-1.8c-3.2,0-6.1,0.7-8.6,2.1c-2.5,1.4-4.5,3.4-6,5.9 c-1.4,2.5-2.2,5.5-2.2,8.9s0.7,6.4,2.2,8.9c1.4,2.5,3.4,4.5,6,5.9c2.5,1.4,5.4,2.1,8.6,2.1c2.9,0,5.4-0.6,7.6-1.9 c1.3-0.7,2.4-1.7,3.4-2.9v4.3h7.4V89.3H612.1z M610.9,124.3c-0.9,1.6-2.1,2.8-3.5,3.6c-1.5,0.8-3.1,1.2-5,1.2 c-1.9,0-3.5-0.4-5-1.2c-1.5-0.8-2.7-2-3.5-3.6c-0.9-1.6-1.3-3.4-1.3-5.5c0-2.2,0.4-4,1.3-5.6c0.9-1.6,2.1-2.7,3.5-3.6 c1.5-0.8,3.1-1.2,5-1.2c1.9,0,3.5,0.4,5,1.2c1.5,0.8,2.7,2,3.5,3.6c0.9,1.6,1.3,3.4,1.3,5.6 C612.2,120.9,611.8,122.8,610.9,124.3z"></path> <path d="M659,109.9c-1.4-2.6-3.4-4.6-6-6c-2.5-1.4-5.4-2.1-8.6-2.1c-3.3,0-6.3,0.7-8.9,2.2c-2.6,1.4-4.6,3.4-6.1,6 c-1.5,2.5-2.2,5.5-2.2,8.8c0,3.3,0.8,6.2,2.3,8.8c1.5,2.6,3.6,4.6,6.4,6.1c2.8,1.5,6,2.2,9.7,2.2c2.9,0,5.5-0.5,7.7-1.4 c2.3-0.9,4.1-2.3,5.6-4l-4.2-4.8c-1.2,1.2-2.5,2.2-4,2.7c-1.5,0.6-3.2,0.9-5,0.9c-2.2,0-4.1-0.4-5.7-1.2c-1.7-0.8-2.9-2-3.9-3.5 c-0.6-1-0.9-2-1.2-3.2h26c0-0.4,0.1-0.8,0.1-1.2c0-0.4,0-0.8,0-1.1C661.2,115.5,660.5,112.5,659,109.9z M636.1,112.7 c0.8-1.5,1.9-2.6,3.4-3.4c1.4-0.8,3.1-1.2,5-1.2c1.9,0,3.5,0.4,4.9,1.2c1.4,0.8,2.6,2,3.4,3.4c0.6,1,0.9,2.2,1.1,3.4H635 C635.2,114.9,635.5,113.7,636.1,112.7z"></path> <path d="M686.6,135.4V91.9h8.1v43.5C694.6,135.4,686.6,135.4,686.6,135.4z"></path> <path d="M736.5,108.1c-1.2-2.1-2.8-3.7-4.9-4.8c-2.1-1-4.5-1.6-7.1-1.6c-2.9,0-5.5,0.6-7.7,1.7c-1.5,0.8-2.7,1.8-3.8,3v-4.3 h-7.4v33.2h7.8v-16.8c0-2.2,0.4-4.1,1.1-5.6c0.8-1.5,1.8-2.6,3.3-3.3c1.4-0.7,3-1.1,4.8-1.1c2.5,0,4.4,0.7,5.8,2.2 c1.4,1.4,2.1,3.6,2.1,6.6v18h7.8v-19C738.3,113,737.7,110.3,736.5,108.1z"></path> <path d="M779.1,108.1c-1.2-2.1-2.8-3.7-4.9-4.8c-2.1-1-4.5-1.6-7.1-1.6c-2.9,0-5.5,0.6-7.7,1.7c-1.5,0.8-2.7,1.8-3.8,3v-4.3 h-7.4v33.2h7.8v-16.8c0-2.2,0.4-4.1,1.1-5.6c0.8-1.5,1.8-2.6,3.3-3.3c1.4-0.7,3-1.1,4.8-1.1c2.5,0,4.4,0.7,5.8,2.2 c1.4,1.4,2.1,3.6,2.1,6.6v18h7.8v-19C780.9,113,780.3,110.3,779.1,108.1z"></path> <path d="M805.7,135.8c-3.4,0-6.4-0.7-9.1-2.2c-2.7-1.5-4.7-3.5-6.3-6.1c-1.5-2.6-2.3-5.5-2.3-8.8c0-3.3,0.8-6.2,2.3-8.8 c1.5-2.5,3.6-4.5,6.3-6c2.7-1.4,5.7-2.2,9.1-2.2c3.4,0,6.5,0.7,9.2,2.2c2.7,1.4,4.8,3.4,6.3,6c1.5,2.5,2.3,5.5,2.3,8.8 c0,3.3-0.8,6.2-2.3,8.8c-1.5,2.6-3.6,4.6-6.3,6.1C812.2,135.1,809.2,135.8,805.7,135.8z M805.7,129.2c1.9,0,3.6-0.4,5.1-1.2 c1.5-0.8,2.7-2,3.5-3.6c0.9-1.6,1.3-3.4,1.3-5.5c0-2.2-0.4-4-1.3-5.6c-0.9-1.6-2-2.7-3.5-3.6c-1.5-0.8-3.2-1.2-5-1.2 c-1.9,0-3.6,0.4-5.1,1.2c-1.5,0.8-2.6,2-3.5,3.6s-1.3,3.4-1.3,5.6c0,2.1,0.4,4,1.3,5.5c0.9,1.6,2,2.8,3.5,3.6 C802.2,128.8,803.8,129.2,805.7,129.2z"></path> <polygon points="853.5,102.2 842.9,126.8 832.6,102.2 824.5,102.2 838.8,135.4 846.8,135.4 861,102.2 "></polygon> <path d="M888.6,105.3c-2.6-2.3-6.4-3.4-11.2-3.4c-2.7,0-5.2,0.3-7.7,1c-2.5,0.7-4.6,1.7-6.4,3.1l3,5.7c1.2-1,2.8-1.8,4.6-2.4 s3.6-0.9,5.5-0.9c2.8,0,4.8,0.6,6.2,1.9c1.4,1.3,2.1,3,2.1,5.3v0.5h-8.6c-3.4,0-6,0.4-8.1,1.3c-2,0.9-3.5,2.1-4.4,3.5 c-0.9,1.5-1.3,3.2-1.3,5c0,1.9,0.5,3.6,1.5,5.1c1,1.5,2.5,2.7,4.3,3.5c1.9,0.9,4,1.3,6.5,1.3c2.9,0,5.4-0.5,7.3-1.6 c1.3-0.7,2.4-1.7,3.1-2.9v4h7.3v-19.5C892.6,111.1,891.2,107.6,888.6,105.3z M881.5,128.9c-1.5,0.9-3.2,1.3-5.1,1.3 c-2,0-3.5-0.4-4.7-1.2c-1.1-0.8-1.7-1.9-1.7-3.4c0-1.2,0.5-2.3,1.4-3.1c0.9-0.9,2.7-1.3,5.3-1.3h8v3.9 C884.1,126.7,883,128,881.5,128.9z"></path> <path d="M917.8,135.8c-3.5,0-6.6-0.7-9.3-2.2c-2.7-1.5-4.8-3.5-6.4-6.1c-1.5-2.6-2.3-5.5-2.3-8.8c0-3.3,0.8-6.2,2.3-8.8 c1.5-2.5,3.7-4.5,6.4-6c2.7-1.4,5.8-2.2,9.3-2.2c3.2,0,6.1,0.7,8.5,2c2.5,1.3,4.3,3.2,5.6,5.7l-6,3.5c-1-1.6-2.2-2.7-3.6-3.5 s-3-1.1-4.6-1.1c-1.9,0-3.6,0.4-5.2,1.2c-1.5,0.8-2.7,2-3.6,3.6c-0.9,1.6-1.3,3.4-1.3,5.6c0,2.2,0.4,4,1.3,5.6 c0.9,1.6,2.1,2.7,3.6,3.6c1.5,0.8,3.2,1.2,5.2,1.2c1.7,0,3.2-0.4,4.6-1.1c1.4-0.7,2.6-1.9,3.6-3.5l6,3.5 c-1.3,2.5-3.2,4.4-5.6,5.7C923.9,135.1,921,135.8,917.8,135.8z"></path> <path d="M942.3,96.7c-1.4,0-2.6-0.5-3.6-1.4c-0.9-0.9-1.4-2-1.4-3.3c0-1.3,0.5-2.4,1.4-3.3c0.9-0.9,2.1-1.3,3.6-1.3 s2.6,0.4,3.6,1.3s1.4,1.9,1.4,3.2c0,1.4-0.5,2.5-1.4,3.4C944.9,96.3,943.8,96.7,942.3,96.7z M938.3,135.4v-33.2h7.8v33.2 C946.1,135.4,938.3,135.4,938.3,135.4z"></path> <path d="M971.2,135.8c-3.4,0-6.4-0.7-9.1-2.2c-2.7-1.5-4.7-3.5-6.3-6.1c-1.5-2.6-2.3-5.5-2.3-8.8c0-3.3,0.8-6.2,2.3-8.8 c1.5-2.5,3.6-4.5,6.3-6c2.7-1.4,5.7-2.2,9.1-2.2c3.4,0,6.5,0.7,9.2,2.2c2.7,1.4,4.8,3.4,6.3,6c1.5,2.5,2.3,5.5,2.3,8.8 c0,3.3-0.8,6.2-2.3,8.8c-1.5,2.6-3.6,4.6-6.3,6.1C977.7,135.1,974.6,135.8,971.2,135.8z M971.2,129.2c1.9,0,3.6-0.4,5.1-1.2 c1.5-0.8,2.7-2,3.5-3.6c0.9-1.6,1.3-3.4,1.3-5.5c0-2.2-0.4-4-1.3-5.6c-0.9-1.6-2-2.7-3.5-3.6c-1.5-0.8-3.2-1.2-5-1.2 c-1.9,0-3.6,0.4-5.1,1.2c-1.5,0.8-2.6,2-3.5,3.6s-1.3,3.4-1.3,5.6c0,2.1,0.4,4,1.3,5.5c0.9,1.6,2,2.8,3.5,3.6 C967.7,128.8,969.3,129.2,971.2,129.2z M965.9,97.7l8.4-8.5h9.1l-10.8,8.5H965.9z"></path> <path d="M1027.2,108.1c-1.2-2.1-2.8-3.7-4.9-4.8c-2.1-1-4.5-1.6-7.1-1.6c-2.9,0-5.5,0.6-7.7,1.7c-1.5,0.8-2.7,1.8-3.8,3v-4.3 h-7.4v33.2h7.8v-16.8c0-2.2,0.4-4.1,1.1-5.6c0.8-1.5,1.8-2.6,3.3-3.3s3-1.1,4.8-1.1c2.5,0,4.4,0.7,5.8,2.2 c1.4,1.4,2.1,3.6,2.1,6.6v18h7.8v-19C1029,113,1028.4,110.3,1027.2,108.1z"></path> </g> </g> <g> <path d="M584.6,208.1v-43.5h19c4.7,0,8.9,0.9,12.4,2.7c3.6,1.8,6.3,4.3,8.3,7.6c2,3.2,3,7,3,11.4c0,4.3-1,8.2-3,11.4 c-2,3.2-4.8,5.8-8.3,7.6c-3.6,1.8-7.7,2.7-12.4,2.7L584.6,208.1L584.6,208.1z M592.7,201.3h10.6c3.3,0,6.1-0.6,8.5-1.9 c2.4-1.2,4.2-3,5.5-5.2c1.3-2.2,2-4.8,2-7.8c0-3-0.7-5.6-2-7.9s-3.2-3.9-5.5-5.2c-2.4-1.2-5.2-1.9-8.5-1.9h-10.6V201.3z"></path> <path d="M639.1,169.5c-1.4,0-2.6-0.5-3.6-1.4c-0.9-0.9-1.4-2-1.4-3.3c0-1.3,0.5-2.4,1.4-3.3c0.9-0.9,2.1-1.3,3.6-1.3 c1.4,0,2.6,0.4,3.6,1.3c0.9,0.9,1.4,1.9,1.4,3.2c0,1.4-0.5,2.5-1.4,3.4C641.8,169,640.6,169.5,639.1,169.5z M635.2,208.1v-33.2 h7.8v33.2H635.2z"></path> <path d="M663.4,208.6c-2.8,0-5.4-0.4-8-1.1c-2.5-0.7-4.6-1.6-6.1-2.6l3-5.9c1.5,0.9,3.3,1.7,5.3,2.4c2.1,0.6,4.1,0.9,6.2,0.9 c2.4,0,4.2-0.3,5.3-1c1.1-0.7,1.6-1.6,1.6-2.7c0-0.9-0.4-1.6-1.1-2.1c-0.7-0.5-1.7-0.8-2.9-1.1c-1.2-0.2-2.5-0.5-4-0.7 c-1.5-0.2-2.9-0.5-4.4-0.8c-1.5-0.4-2.8-0.9-4-1.6c-1.2-0.7-2.2-1.6-2.9-2.8c-0.7-1.2-1.1-2.7-1.1-4.6c0-2.1,0.6-3.9,1.8-5.5 s2.9-2.8,5.1-3.6c2.2-0.9,4.8-1.3,7.7-1.3c2.2,0,4.5,0.2,6.8,0.7c2.3,0.5,4.2,1.2,5.7,2.1l-3,5.9c-1.6-0.9-3.2-1.6-4.8-2 c-1.6-0.4-3.2-0.5-4.8-0.5c-2.4,0-4.1,0.4-5.2,1.1c-1.1,0.7-1.7,1.6-1.7,2.7c0,1,0.4,1.7,1.1,2.2c0.7,0.5,1.7,0.9,2.9,1.2 c1.2,0.3,2.5,0.5,4,0.7c1.5,0.2,2.9,0.5,4.4,0.8c1.4,0.4,2.8,0.9,4,1.5c1.2,0.6,2.2,1.5,3,2.7c0.7,1.2,1.1,2.7,1.1,4.5 c0,2.1-0.6,3.9-1.8,5.4s-3,2.7-5.2,3.6C669.2,208.1,666.5,208.6,663.4,208.6z"></path> <path d="M714.1,182.7c-1.4-2.6-3.4-4.6-6-6c-2.5-1.4-5.4-2.1-8.6-2.1c-3.3,0-6.3,0.7-8.9,2.2c-2.6,1.4-4.6,3.4-6.1,6 c-1.5,2.5-2.2,5.5-2.2,8.8c0,3.3,0.8,6.2,2.3,8.8c1.5,2.6,3.6,4.6,6.4,6.1c2.8,1.5,6,2.2,9.7,2.2c2.9,0,5.5-0.5,7.7-1.4 s4.1-2.3,5.6-4l-4.2-4.8c-1.2,1.2-2.5,2.2-4,2.7c-1.5,0.6-3.2,0.9-5,0.9c-2.2,0-4.1-0.4-5.7-1.2c-1.7-0.8-2.9-2-3.9-3.5 c-0.6-1-0.9-2-1.2-3.2h26c0-0.4,0.1-0.8,0.1-1.2c0-0.4,0-0.8,0-1.1C716.3,188.2,715.6,185.2,714.1,182.7z M691.2,185.5 c0.8-1.5,1.9-2.6,3.4-3.4c1.4-0.8,3.1-1.2,5-1.2c1.9,0,3.5,0.4,4.9,1.2s2.6,2,3.4,3.4c0.6,1,0.9,2.2,1.1,3.4h-18.8 C690.3,187.6,690.6,186.5,691.2,185.5z"></path> <g> <path d="M734,167.3c0.5-0.7,1.2-1,2.1-1c0.6,0,1.2,0.2,1.7,0.6s1.2,0.9,1.8,1.5c0.6,0.6,1.4,1,2.2,1.4c0.8,0.4,1.7,0.6,2.7,0.6 c2,0,3.6-0.8,4.8-2.3s1.8-3.5,1.9-5.9h-4.2c0,1.1-0.3,2-0.9,2.6c-0.6,0.6-1.3,0.9-2.1,0.9c-0.5,0-1.1-0.2-1.7-0.6 c-0.6-0.4-1.2-0.9-1.8-1.4c-0.6-0.5-1.4-1-2.2-1.4c-0.8-0.4-1.7-0.6-2.7-0.6c-2,0-3.6,0.7-4.8,2.2c-1.2,1.5-1.8,3.5-1.9,6.1h4.2 C733.2,168.9,733.5,168,734,167.3z"></path> <path d="M754.6,180.9c-1.2-2.1-2.8-3.7-4.9-4.8c-2.1-1-4.5-1.6-7.1-1.6c-2.9,0-5.5,0.6-7.7,1.7c-1.5,0.8-2.7,1.8-3.8,3v-4.3 h-7.4v33.2h7.8v-16.8c0-2.2,0.4-4.1,1.1-5.6c0.8-1.5,1.8-2.6,3.3-3.3s3-1.1,4.8-1.1c2.5,0,4.4,0.7,5.8,2.2 c1.4,1.4,2.1,3.6,2.1,6.6v18h7.8v-19C756.4,185.8,755.8,183,754.6,180.9z"></path> </g> <path d="M781.3,208.6c-3.4,0-6.4-0.7-9.1-2.2c-2.7-1.5-4.7-3.5-6.3-6.1c-1.5-2.6-2.3-5.5-2.3-8.8c0-3.3,0.8-6.2,2.3-8.8 c1.5-2.5,3.6-4.5,6.3-6c2.7-1.4,5.7-2.2,9.1-2.2c3.4,0,6.5,0.7,9.2,2.2c2.7,1.4,4.8,3.4,6.3,6c1.5,2.5,2.3,5.5,2.3,8.8 c0,3.3-0.8,6.2-2.3,8.8c-1.5,2.6-3.6,4.6-6.3,6.1C787.8,207.8,784.7,208.6,781.3,208.6z M781.3,201.9c1.9,0,3.6-0.4,5.1-1.2 c1.5-0.8,2.7-2,3.5-3.6s1.3-3.4,1.3-5.5c0-2.2-0.4-4-1.3-5.6c-0.9-1.6-2-2.7-3.5-3.6c-1.5-0.8-3.2-1.2-5-1.2 c-1.9,0-3.6,0.4-5.1,1.2c-1.5,0.8-2.6,2-3.5,3.6s-1.3,3.4-1.3,5.6c0,2.1,0.4,4,1.3,5.5c0.9,1.6,2,2.8,3.5,3.6 C777.8,201.5,779.4,201.9,781.3,201.9z"></path> <path d="M847.2,174.9l-10.5,24.5l-10.4-24.5h-8.1l14.5,33.3l-0.6,1.3c-0.7,1.7-1.6,2.8-2.4,3.5c-0.9,0.7-2,1.1-3.4,1.1 c-1,0-2.1-0.2-3-0.6c-1-0.4-1.9-1-2.7-1.7l-3.1,5.7c1.1,0.9,2.4,1.7,4,2.2c1.6,0.5,3.2,0.8,4.8,0.8c1.9,0,3.6-0.3,5.1-0.9 c1.6-0.6,3-1.6,4.2-3c1.3-1.4,2.4-3.4,3.4-5.9l15.5-35.8L847.2,174.9L847.2,174.9z"></path> <path d="M877.4,208.1v-43.5h6.6l19,31.7h-3.5l18.7-31.7h6.6l0.1,43.5h-7.6l-0.1-31.5h1.6L903,203.1h-3.6l-16.2-26.5h1.9v31.5 H877.4z"></path> <path d="M959.8,178c-2.6-2.3-6.4-3.4-11.2-3.4c-2.7,0-5.2,0.3-7.7,1c-2.5,0.7-4.6,1.7-6.4,3.1l3,5.7c1.2-1,2.8-1.8,4.6-2.4 c1.8-0.6,3.6-0.9,5.5-0.9c2.8,0,4.8,0.6,6.2,1.9c1.4,1.3,2.1,3,2.1,5.3v0.5h-8.6c-3.4,0-6,0.4-8.1,1.3c-2,0.9-3.5,2.1-4.4,3.5 c-0.9,1.5-1.3,3.2-1.3,5c0,1.9,0.5,3.6,1.5,5.1c1,1.5,2.5,2.7,4.3,3.5c1.9,0.9,4,1.3,6.5,1.3c2.9,0,5.4-0.5,7.3-1.6 c1.3-0.7,2.4-1.7,3.1-2.9v4h7.3v-19.4C963.7,183.9,962.4,180.3,959.8,178z M952.7,201.6c-1.5,0.9-3.2,1.3-5.1,1.3 c-2,0-3.5-0.4-4.7-1.2c-1.1-0.8-1.7-1.9-1.7-3.4c0-1.2,0.5-2.3,1.4-3.1c0.9-0.9,2.7-1.3,5.3-1.3h8v3.9 C955.3,199.4,954.2,200.7,952.7,201.6z"></path> <path d="M984.9,176.3c-1.6,0.9-2.9,2-3.8,3.5v-4.9h-7.4v33.2h7.8V192c0-3.4,0.9-5.9,2.6-7.7c1.7-1.7,4.1-2.6,7-2.6 c0.3,0,0.6,0,0.9,0c0.3,0,0.6,0.1,0.9,0.2v-7.4C989.7,174.6,987,175.2,984.9,176.3z"></path> <polygon points="1024.5,208.1 1033.9,208.1 1018.8,188.8 1032.6,174.9 1023.3,174.9 1007.2,189.8 1007.2,162 999.5,162 999.5,208.1 1007.2,208.1 1007.2,199.4 1013,193.9 "></polygon> <path d="M1066.6,182.7c-1.4-2.6-3.4-4.6-6-6c-2.5-1.4-5.4-2.1-8.6-2.1c-3.3,0-6.3,0.7-8.9,2.2c-2.6,1.4-4.6,3.4-6.1,6 c-1.5,2.5-2.2,5.5-2.2,8.8c0,3.3,0.8,6.2,2.3,8.8c1.5,2.6,3.6,4.6,6.4,6.1c2.8,1.5,6,2.2,9.7,2.2c2.9,0,5.5-0.5,7.7-1.4 s4.1-2.3,5.6-4l-4.2-4.8c-1.2,1.2-2.5,2.2-4,2.7c-1.5,0.6-3.2,0.9-5,0.9c-2.2,0-4.1-0.4-5.7-1.2c-1.7-0.8-2.9-2-3.9-3.5 c-0.6-1-0.9-2-1.2-3.2h26c0-0.4,0.1-0.8,0.1-1.2c0-0.4,0-0.8,0-1.1C1068.8,188.2,1068.1,185.2,1066.6,182.7z M1043.7,185.5 c0.8-1.5,1.9-2.6,3.4-3.4c1.4-0.8,3.1-1.2,5-1.2c1.9,0,3.5,0.4,4.9,1.2s2.6,2,3.4,3.4c0.6,1,0.9,2.2,1.1,3.4h-18.8 C1042.8,187.6,1043.1,186.5,1043.7,185.5z"></path> <path d="M1094,200.8c-1.2,0.9-2.6,1.4-4.3,1.4c-1.4,0-2.6-0.4-3.4-1.3c-0.8-0.9-1.2-2.1-1.2-3.7v-15.8h8.9v-6.2h-8.9v-7.6h-7.8 v7.6h-5.5v6.2h5.5v16c0,3.7,1,6.5,3,8.4c2,1.9,4.8,2.8,8.4,2.8c1.4,0,2.8-0.2,4.1-0.6c1.3-0.4,2.4-0.9,3.4-1.7L1094,200.8z"></path> <path d="M1106.5,169.5c-1.4,0-2.6-0.5-3.6-1.4c-0.9-0.9-1.4-2-1.4-3.3c0-1.3,0.5-2.4,1.4-3.3c0.9-0.9,2.1-1.3,3.6-1.3 c1.4,0,2.6,0.4,3.6,1.3c0.9,0.9,1.4,1.9,1.4,3.2c0,1.4-0.5,2.5-1.4,3.4C1109.2,169,1108,169.5,1106.5,169.5z M1102.6,208.1v-33.2 h7.8v33.2H1102.6z"></path> <path d="M1151.4,180.9c-1.2-2.1-2.8-3.7-4.9-4.8c-2.1-1-4.5-1.6-7.1-1.6c-2.9,0-5.5,0.6-7.7,1.7c-1.5,0.8-2.7,1.8-3.8,3v-4.3 h-7.4v33.2h7.8v-16.8c0-2.2,0.4-4.1,1.1-5.6c0.8-1.5,1.8-2.6,3.3-3.3c1.4-0.7,3-1.1,4.8-1.1c2.5,0,4.4,0.7,5.8,2.2 c1.4,1.4,2.1,3.6,2.1,6.6v18h7.8v-19C1153.2,185.8,1152.6,183,1151.4,180.9z"></path> <path d="M1188.7,174.9v4.4c-1.1-1.3-2.4-2.4-3.9-3.1c-2.2-1.1-4.8-1.7-7.6-1.7c-3.2,0-6,0.7-8.5,2c-2.5,1.3-4.6,3.2-6,5.6 c-1.5,2.4-2.2,5.2-2.2,8.4c0,3.2,0.7,6,2.2,8.4c1.5,2.4,3.5,4.3,6,5.6c2.5,1.3,5.4,2,8.5,2c2.8,0,5.3-0.6,7.6-1.7 c1.3-0.7,2.5-1.6,3.5-2.7v1.8c0,3.4-0.9,5.9-2.5,7.5c-1.7,1.7-4.4,2.5-8,2.5c-2.3,0-4.5-0.4-6.7-1.1c-2.2-0.7-4.1-1.7-5.5-2.9 l-3.5,5.8c1.9,1.5,4.3,2.7,7.2,3.5c2.9,0.8,5.9,1.2,9,1.2c5.8,0,10.2-1.4,13.3-4.3c3.1-2.8,4.6-7.3,4.6-13.3v-28.1L1188.7,174.9 L1188.7,174.9z M1187.2,195.5c-0.9,1.4-2,2.5-3.6,3.4c-1.5,0.8-3.3,1.2-5.2,1.2c-1.9,0-3.7-0.4-5.2-1.2c-1.6-0.8-2.8-1.9-3.6-3.4 c-0.9-1.4-1.3-3.1-1.3-4.9c0-1.9,0.4-3.5,1.3-4.9c0.9-1.4,2.1-2.5,3.6-3.3c1.6-0.8,3.3-1.1,5.2-1.1c1.9,0,3.7,0.4,5.2,1.1 c1.5,0.8,2.7,1.9,3.6,3.3c0.9,1.4,1.3,3.1,1.3,4.9C1188.4,192.4,1188,194.1,1187.2,195.5z"></path> </g> </g> </g> </svg> 